<?xml version="1.0" encoding="utf-8"?>
<!-- Generator: Adobe Illustrator 21.0.0, SVG Export Plug-In . SVG Version: 6.00 Build 0)  -->
<!DOCTYPE svg PUBLIC "-//W3C//DTD SVG 1.1//EN" "http://www.w3.org/Graphics/SVG/1.1/DTD/svg11.dtd">
<svg version="1.1" id="Layer_1" xmlns="http://www.w3.org/2000/svg" xmlns:xlink="http://www.w3.org/1999/xlink" x="0px" y="0px"
	 viewBox="0 0 481.6 82.1" style="enable-background:new 0 0 481.6 82.1;" xml:space="preserve">
<style type="text/css">
	.st0{fill:#3B72B9;}
	.st1{fill-rule:evenodd;clip-rule:evenodd;fill:#3B72B9;}
</style>
<g>
	<path id="XMLID_173_" class="st0" d="M100.6,10.9c-1.3-0.1-4.4-0.2-4.6-0.2c-13.9,0-22.9,7.4-27.9,16C64.1,33.6,56,48.1,56,48.1
		c-3.2,5.1-7.5,7.3-13.3,7.3c0,0,0,0,0,0c-8.3,0-15.1-6.3-15.1-14c0-7.7,6.8-14,15.1-14c4.9,0,8.5,1.3,11.4,4.5l8.9-14.7
		c-5.7-4.1-12.8-6.6-20.5-6.6c-18.3,0-33.2,13.7-33.2,30.7c0,14.3,10.6,26.3,25,29.7c2.6,0.6,5.4,1,8.2,1c0.2,0,0.4,0,0.7,0
		c10.9-0.2,21.3-3.7,26.4-12.9C74.7,49.9,80.5,38.9,83,35c2.5-3.9,4.8-5.6,8.3-6.7c1.6-0.5,3.3-0.8,5.1-0.8c8.3,0,15.1,6.3,15.1,14
		s-6.8,14-15.1,14c-6.8,0-11-1.7-15-6.7l-8.6,14.1c6,5.7,14.5,9.3,23.8,9.3c18.3,0,33.2-13.7,33.2-30.7
		C129.9,25.7,117.1,12.7,100.6,10.9z"/>
	<path id="XMLID_172_" class="st1" d="M164.3,70.3c-4.3,0-8.1-0.5-11.7-1.6c-3.6-0.9-6.5-2.5-9-4.8c-2.5-2.3-4.5-5-5.9-8.4
		c-1.4-3.4-2-7.5-2-12.2V11.9h19.8v31.3c0,3.6,0.9,6.1,2.5,7.7c1.6,1.6,3.8,2.5,6.5,2.5c2.7,0,4.7-0.7,6.5-2.3
		c1.6-1.6,2.5-4.1,2.5-7.5V11.9h19.8v31.1c0,5-0.7,9.1-2,12.5c-1.4,3.4-3.4,6.3-5.9,8.4c-2.5,2.3-5.6,3.9-9,4.8
		C172.6,69.9,168.6,70.3,164.3,70.3z"/>
	<g id="XMLID_168_">
		<path id="XMLID_169_" class="st0" d="M359.2,41.3c0-19.3-11.5-31.3-31.5-31.3c-18.9,0-32,11.3-32,30.1c0,19.3,14.2,29.9,33.3,29.9
			c13.1,0,26.1-5.9,29.3-19.3h-19.6c-2.3,3.9-5.4,5.2-9.7,5.2c-8.6,0-12.8-4.3-12.8-12.5h43V41.3z M316.7,32
			c1.4-5.7,6.3-8.8,12.2-8.8c5.4,0,10.6,3.4,11.5,8.8H316.7z"/>
	</g>
	<g id="XMLID_163_">
		<path id="XMLID_165_" class="st0" d="M451.8,12.1v5.2c-4.3-4.8-11.3-7.3-17.8-7.3c-17.1,0-28.8,13.8-28.8,29.9s11.9,30.1,29,30.1
			c6.8,0,13.7-2.5,17.3-8.2h0.2v6.3h20.5V12.1H451.8z M439.2,52.9c-8.3,0-13.1-5.4-13.1-12.7c0-6.8,5-12.7,13.1-12.7
			c8.3,0,13.1,5.7,13.1,12.7C452.2,47.4,447.5,52.9,439.2,52.9z"/>
	</g>
	<path id="XMLID_162_" class="st1" d="M282.8,26.6c-3.2-1.6-7.4-2.7-11-2.7c-2.3,0-6.3,0.9-6.3,3.9c0,3.9,6.3,4.3,9.2,5
		c9.5,1.8,16.7,6.3,16.7,16.8c0,15-13.7,21.1-27.2,21.1c-8.1,0-16.2-2.3-23.2-6.6l7.4-14.1c4.1,2.9,11,5.7,16.2,5.7
		c2.5,0,6.3-1.1,6.3-4.3c0-4.3-6.3-4.5-12.8-6.3c-6.3-1.6-12.8-4.8-12.8-15c0-13.8,12.8-19.9,25.4-19.9c6.5,0,13.1,0.9,18.9,3.6
		L282.8,26.6z"/>
	<path id="XMLID_161_" class="st1" d="M247.3,11.2c-1.2,0,0.3,0-6.9,0c-7.2,0-14.6,3.2-18.7,10h-0.2v-9.1H201v56.4h20.5V45.9
		c0-9.7,4.7-17,16.2-17C242.3,19.8,247.3,11.2,247.3,11.2z"/>
	<path id="XMLID_160_" class="st1" d="M410.7,11.2c-1.2,0,0.3,0-6.9,0c-7.2,0-14.6,3.2-18.7,10h-0.2v-9.1h-20.5v56.4h20.5V45.9
		c0-9.7,4.7-17,16.2-17C405.7,19.8,410.7,11.2,410.7,11.2z"/>
</g>
</svg>
