<?xml version="1.0" encoding="utf-8"?>
<!-- Generator: Adobe Illustrator 21.0.0, SVG Export Plug-In . SVG Version: 6.00 Build 0)  -->
<!DOCTYPE svg PUBLIC "-//W3C//DTD SVG 1.1//EN" "http://www.w3.org/Graphics/SVG/1.1/DTD/svg11.dtd">
<svg version="1.1" id="Layer_1" xmlns="http://www.w3.org/2000/svg" xmlns:xlink="http://www.w3.org/1999/xlink" x="0px" y="0px"
	 viewBox="0 0 507 412" style="enable-background:new 0 0 507 412;" xml:space="preserve">
<style type="text/css">
	.st0{fill:#010101;}
</style>
<g>
	<g>
		<path class="st0" d="M218.4,90.5V67.4l9-7.2l-0.1-0.8l-8.9-7.2V35.1c8.2,0,16.8-5.6,16.8-16l0,0c0-11-10.3-14.2-19-13.8V7
			c5.2,0.1,9.1,1.9,9.1,5.3c0,2.4-1.7,5.4-6.9,5.4c-4.1,0-12.1-2.4-18.4-4.5c-7-2.4-13.7-4.6-19.2-4.6c-10.9,0-19.1,8.1-19.1,18
			c0,8.1,6.1,11,8.6,12.1l0.8-1.3c-1.6-1.1-3.2-2.3-3.2-5.4c0-2.4,2.1-6.2,7.7-6.2c5,0,11.7,2.3,20.4,4.8c7.6,2.1,15.9,4.1,20.4,4.6
			v17.2l-8.5,7V60l8.5,7.4v23.7c-4.4,2.5-9.4,3.2-13.8,3.2c-8.1,0-15.8-2.1-21.9-8.9l22.8-11V36.4l-28,12.5
			c2.9-7.4,8.8-12.3,14.7-15.9l-0.4-1.3c-16.6,4.5-31.7,19.8-31.7,38.6c0,22.5,18.3,39.2,39.1,39.2c22.5,0,36.9-17.6,36.6-36.3
			l-1.3-0.1C229.4,80.2,224.6,86.9,218.4,90.5z M173.7,62.8c0-3.8,0.4-8.6,1.6-11.9l11.7-5.2l-0.1,35L180,84
			C176.2,79,173.7,72.2,173.7,62.8z"/>
		<path class="st0" d="M245.8,93l-7.4,5.6l0.9,1.1l3.6-2.5l12.5,11.4l16.7-11.1l-0.8-1.2l-4.4,2.8l-5.4-5.4V55.4L266,52l9.5,7.7
			v33.8c0,21.1-4.6,24.5-14.2,28v1.5c15.8,0.7,30-4.6,30-31.7V55l5-4l-0.9-1.2l-4.4,3.4l-13.7-11.8l-15.9,11.9V7.5h-1.2l-19.8,13.3
			v1.2c2,1.2,5.3,2,5.3,8.6L245.8,93z"/>
		<path class="st0" d="M347.6,87.1L334,97.7l-14.2-11.1v-6.6l26.4-17.6v-0.8l-13.1-20.2l-28.8,15.4v36.6l-5.7,4.4l0.9,1.2l5.2-4.1
			l18.8,13.7l25.2-19.9L347.6,87.1z M319.8,50.6l0.9-0.7l12.2,19.2l-13.1,8.8V50.6z"/>
	</g>
	<g>
		<path class="st0" d="M93.3,149c0-1.7-0.4-3.2-1.1-5.2h-1.3c-1.7,4.6-3.8,7.2-9.3,7.2c-4.8,0-8.5-2.9-10.5-5
			c0,0.1-15.9,18.4-15.9,18.4l1.3,1.2l4.5-5.2c3.4,2.7,6,5.2,13.7,5.3v46.4l-32.6-56.5c-2.5-4.2-6.8-10.6-14.6-10.6
			c-8.8,0-16.8,7.6-15.8,20.3h1.6c0.4-3.4,2.1-7.2,6-7.2c3,0,5.8,2.9,7.3,5.6v18.2c-10.1,0-16.7,4.6-16.7,12.9
			c0,4.2,2.1,11.4,9.1,12.7l0.1-1.2c-0.9-0.9-1.9-2-1.9-3.8c0-3,2.3-5,6.4-5c0.7,0,2.5,0.1,2.9,0.3v23.6
			c-11.8,0.1-20.9,6.6-20.9,17.8c0,10.6,9.1,15.6,18.7,15.1l0.1-1.3c-6-0.7-9.1-3.4-9.1-7.3c0-4.8,3.4-7.3,7.8-7.3
			c4.5,0,8.5,2.8,11.3,6l16-17.9l-1.3-1.2l-4.1,4.6c-6.1-5.4-9.5-7.4-16.6-8.5v-55.8l44.9,78.4h3.2v-78.1
			C85.2,165.1,93.3,158.6,93.3,149L93.3,149z"/>
		<path class="st0" d="M133.4,222L133.4,222l-13.7,10.6l-14.2-11.1v-6.6l26.4-17.6v-0.8l-13.1-20.2l-28.8,15.4v36.6l-5.7,4.4
			l0.9,1.2l5.2-4.1l18.8,13.7l25.2-19.9L133.4,222z M105.6,185.6l0.9-0.7l12.2,19.2l-13.1,8.8V185.6z"/>
		<path class="st0" d="M224.7,182.4l-4.1,3l-10.6-9l-12.3,11.1l5,4.8v42l-13.5-8.6v-34.2l4.4-3l-13-12.1l-12.1,11.1l5,4.8v39.9
			l-1.7,1.1l-11.8-8.4v-33.5c0-7.7-3.7-9.9-8.6-13c-4.1-2.5-6-4.6-6-8.5c0-3.2,3.2-5,4.8-6c-0.1-0.1-0.1-1.3-0.1-1.3
			c-4.2-0.1-16,4.5-16.3,15.3c-0.1,5.6,2.5,8,5.3,10.6c2.8,2.6,5.3,5.2,5.3,9.8v32.2l-6,4.6l0.9,1.2l5.4-4.2l14.7,11.5l13.9-9.4
			l15.4,9.4l29.6-17.2V189l7.3-5.3L224.7,182.4L224.7,182.4z"/>
		<path class="st0" d="M328,151.8l-5.6,5l-12.5-10.9l-18.2,13.5v-12.7h-1.9l0.4,90.3c-1.9-0.3-6.5-1.3-10.7-2l-0.4-75.5
			c0-5.6-4-13.3-13.9-13.3c-10.2,0-16.8,7.8-16.8,15.6h1.6c0.5-3.3,2.3-6.2,5.6-6.2c3.4,0,6.4,2.1,6.4,9.5V187
			c-10.2,0.4-16,6.1-16,13.1c0,4.4,2,11.1,9.1,11.4l0.3-1.3c-2.4-1.1-2.9-2.5-2.9-3.8c0-3.2,3-4.5,7.3-4.5h2v34.5
			c-8.1,2.8-11.8,8.8-11.8,15.5c0,9.3,7.4,16.3,18.3,16.3c7.7,0,14.3-1.3,21.3-2.9c5.7-1.2,12.6-2.5,15.9-2.5c4.2,0,6.1,2,6.1,5
			c0,3.8-1.7,5.3-4,6l0.3,1.3c9.1-1.7,14.5-7.2,14.5-15.4c0-8.5-8.1-13.5-17.1-13.5c-4.6,0-13.8,1.5-20.7,3.1
			c-7.7,1.7-15.5,2.5-17.9,2.5c-3.8,0-8.6-1.9-8.6-7c0-4.6,3.8-8.4,13.4-8.4c5.2,0,11,0.8,17.4,2.2c6.8,1.5,12.7,3.3,18.6,3.3
			c8.1,0,15.4-2.9,15.4-14.7v-68.7l6.5-5.6L328,151.8z M305.1,228.7c0,4.5-3,8.9-8.9,8.9c-0.9,0-3.6-0.1-4.5-0.3v-32.6
			c1.3-1.2,3.7-3.1,6.8-3.1c2.8,0,5,1.6,6.6,3.1V228.7z M305.1,202.7c-1.3-1.3-3.7-2.8-6.6-2.8c-2.9,0-5.6,1.7-6.8,2.8v-14.6
			c1.2,1.1,3.8,2.9,6.8,2.9c2.9,0,5.3-1.6,6.6-2.9V202.7z M305.1,186.1c-1.5,1.6-3.8,3.2-6.6,3.2c-3,0-5.3-1.9-6.8-3.2v-24.8
			l5.7-3.8l7.7,7V186.1z"/>
		<path class="st0" d="M363.2,176.3l-27,15.5v36.3l-5.6,4.5l0.8,1.2l4.4-3.6l17.9,13.1l27.6-16.8v-37.4L363.2,176.3z M365.7,234.4
			l-14.1-10.1v-39.8l14.1,10.1V234.4z"/>
		<path class="st0" d="M434.4,177.7c0,0.1-1.1,0-1.1,0c-1.5,1.3-3.3,2.2-4.9,2.2c-2.1,0-4.9-1.3-6.2-3h-1.1l-9.4,10.3l-9.7-10.3
			l-16.4,11.4l0.8,1.3l4.4-2.9l5.7,6.1V228l-7.4,5.6l0.9,1.1l3.6-2.5l13.4,11.4l17.4-11.5l-0.8-1.2l-4.9,2.9l-6.5-5.8v-39.1
			c2.8,3.1,6.1,5.7,9.9,5.7C429.5,194.4,433.6,186.2,434.4,177.7L434.4,177.7z"/>
		<path class="st0" d="M501.4,231.2l-19,12.5l-25.7-38.9l18.2-28.2l1.2-0.1c2.1,2.1,5.8,4.4,9.3,4.4c3.8,0,6.5-2.1,8.1-4.4
			c0,0,1.1,0.1,1.1,0c-0.7,11.3-8.2,17.6-13.9,17.6c-5.8,0-8.6-2.7-11.7-4.5l-1.7,2.5l27.8,41.2l5.6-3.4L501.4,231.2z"/>
		<path class="st0" d="M440.1,228l-7.4,5.6l0.9,1.1l3.6-2.5l12.5,11.4l16.7-11.1l-0.9-1.2l-4.2,2.8l-5.4-5.4v-86.1h-1.2l-20.2,13.4
			v1.2c2,1.2,5.7,1.7,5.7,8.5L440.1,228z"/>
	</g>
	<g>
		<path class="st0" d="M341.5,392.5l-14.2-11.1v-6.6l26.4-17.6v-0.8l-13.1-20.2l-28.8,15.4v37.8l19.2,13.9l25.2-19.9l-1.1-1.5
			L341.5,392.5z M327.3,345.4l0.9-0.7l12.2,19.2l-13.1,8.8V345.4z"/>
		<polygon class="st0" points="195.4,329.4 206.5,320.1 206.4,319.4 197,308.7 196.9,308.7 196.2,308.6 185,318 185,318.8 
			194.4,329.4 		"/>
		<path class="st0" d="M177.9,313.9L177.9,313.9c0-11-10.4-14.2-19-13.8v1.7c5.2,0.1,9.1,1.9,9.1,5.3c0,2.4-1.7,5.4-6.9,5.4
			c-4.1,0-12.1-2.4-18.4-4.5c-7-2.4-13.7-4.6-19.2-4.6c-10.9,0-19.1,8.1-19.1,18c0,8.1,6.1,11,8.6,12.1l0.8-1.3
			c-1.6-1.1-3.2-2.2-3.2-5.4c0-2.4,2.1-6.2,7.7-6.2c5,0,11.7,2.3,20.4,4.8c7.6,2.1,15.9,4.1,20.4,4.6v17.2l-8.5,7v0.7l8.5,7.4V386
			c-4.4,2.5-9.4,3.2-13.8,3.2c-8.1,0-15.8-2.1-21.9-8.9l22.8-11v-38.1l-28,12.5c2.9-7.4,8.8-12.3,14.7-15.9l-0.4-1.3
			C116.1,331,101,346.2,101,365c0,22.5,18.3,39.2,39.1,39.2c22.5,0,36.9-17.6,36.6-36.3l-1.3-0.1c-3.3,7.2-8.1,13.9-14.3,17.5v-23.1
			l9-7.2l-0.1-0.8l-8.9-7.2v-17.2C169.2,329.9,177.9,324.3,177.9,313.9z M116.3,357.6c0-3.8,0.4-8.6,1.6-11.9l11.7-5.2l-0.1,35h0
			l-6.8,3.3C118.9,373.8,116.3,367,116.3,357.6z"/>
		<polygon class="st0" points="209.7,393.8 204.2,388.4 204.2,349.9 209.5,345.9 208.5,344.6 204.4,347.8 194.7,336.3 178.8,347.4 
			179.7,348.9 183.7,346.2 188.6,352.3 188.6,388.4 181.4,393.8 182.2,394.9 185.9,392.2 198.1,403.4 214.8,392.2 213.9,391 		"/>
		<path class="st0" d="M395.3,359.5c7.2-6.2,9.9-14.6,9.9-20.3c0-0.8-0.1-2.3-0.3-3.6h-1.3c-1.1,2.9-3.2,5.4-7.6,5.4
			c-4.2,0-7.3-2.4-9.9-5.3l-25.1,13.7v20.3l9.3,7.3c-9.4,8.4-11.1,14.2-11.1,18.4c0,5.6,2.5,9.6,7.3,11.4l0.7-1.2
			c-1.2-1.1-2.3-1.7-2.3-4.2c0-1.9,2.3-4.5,6.5-4.5c5.4,0,8.8,3.7,10.5,5.7c0-0.1,24.1-14.5,24.1-14.5l0-20.5L395.3,359.5z
			 M390.3,395.1c-2.8-6.2-9.3-10.7-15.9-10.7c-1.6,0-6.2,0-10.5,2.7c2.5-4.2,9.9-12.2,19.5-17.9l6.9,5.3V395.1z M383,367.7l-6.1-4.8
			v-19.8c2.4,5.3,8.2,9.8,14.6,9.8c3.7,0,5.7-0.7,8.6-2.1C396.4,357.5,387.8,364,383,367.7z"/>
		<polygon class="st0" points="302.8,393 296.8,387.6 296.8,349.8 302.5,345.6 301.6,344.4 296.7,348.1 283.9,336.3 267.5,347.9 
			254.9,336.3 238.7,347.8 228.8,336.3 212.9,347.4 213.7,348.9 217.6,346.2 223.1,352.2 223.1,388.2 218.7,392.6 231.4,403.4 
			243.8,392.2 238.7,387.4 238.7,349.8 243.5,346.6 252.1,354.6 252.1,388.3 247.9,392.6 260.7,403.4 272.8,392.2 267.8,387.5 
			267.8,349.5 272,346.7 281.1,354.6 281.1,387.7 277.4,391.6 290.4,403.4 307.5,391.7 306.7,390.4 		"/>
	</g>
</g>
</svg>
