<?xml version="1.0" encoding="utf-8"?>
<!-- Generator: Adobe Illustrator 21.0.0, SVG Export Plug-In . SVG Version: 6.00 Build 0)  -->
<!DOCTYPE svg PUBLIC "-//W3C//DTD SVG 1.1//EN" "http://www.w3.org/Graphics/SVG/1.1/DTD/svg11.dtd">
<svg version="1.1" id="Layer_1" xmlns="http://www.w3.org/2000/svg" xmlns:xlink="http://www.w3.org/1999/xlink" x="0px" y="0px"
	 viewBox="0 0 1003 198" style="enable-background:new 0 0 1003 198;" xml:space="preserve">
<style type="text/css">
	.st0{fill:#4B4F59;}
	.st1{fill:#E31E26;}
</style>
<g>
	<g>
		<path class="st0" d="M230,175.2V26.3h38c12.9,0,22.3,3.1,28.2,9.2c5.9,6.1,8.9,16.3,8.9,30.3c0,18-5.9,29.4-17.8,34.2
			c10.1,2.2,15.2,11.1,15.2,26.8l1.2,32.1v16.3h-24.1v-15.2v-30.6c0-5.4-1-9.2-3-11.6c-2-2.4-5.6-3.6-11-3.6h-11.6v60.9H230z
			 M254.1,95h11.6c1.4,0,2.7-0.1,3.9-0.3c1.2-0.2,2.2-0.5,3.1-1c0.9-0.5,1.7-0.9,2.4-1.2c0.7-0.3,1.3-1,1.9-2.1
			c0.6-1.1,1-1.8,1.3-2.1s0.7-1.2,1.2-2.7c0.5-1.5,0.8-2.4,0.9-2.7c0.1-0.3,0.4-1.3,0.9-3c0.5-1.7,0.7-2.6,0.7-2.8V65.9
			c0-5-1.4-9.2-4.2-12.6c-2.8-3.5-6.8-5.2-12.2-5.2h-11.6V95z M321.6,175.2V26.3h63.9V48h-40.7v38h33V109h-33v44.9h40.7v21.4H321.6z
			 M400.7,175.2V26.3h39.5c23,0,34.5,11.5,34.5,34.5v78.8c0,23.8-11.5,35.7-34.5,35.7H400.7z M425,153.8h11.3
			c5.5,0,9.3-1.3,11.1-3.9c1.9-2.6,2.8-6.8,2.8-12.8V62c0-9.3-4.7-14-14-14H425V153.8z M493.7,175.2V26.3h40.7
			c23,0,34.5,12.3,34.5,36.9c0,8.5-1.9,16-5.6,22.3c-3.8,6.3-8.7,10.8-14.9,13.4c5.7,1.4,10.6,5.2,14.6,11.4
			c4,6.2,5.9,13.5,5.9,21.8c0,13.9-3.1,24.5-9.4,32c-6.2,7.4-14.1,11.1-23.6,11.1H493.7z M516.6,89.9h12.8c5.2,0,8.8-1.1,10.8-3.4
			c2.1-2.3,3.1-6.2,3.1-11.7V63.2c0-5.5-1-9.5-3.1-11.7c-2.1-2.3-5.7-3.4-10.8-3.4h-12.8V89.9z M516.6,153.8h12.8
			c10.3,0,15.5-6,15.5-18.1v-10.1c0-6.3-1.4-10.7-4.2-13.1c-2.8-2.4-7.3-3.6-13.7-3.6h-10.4V153.8z M582.9,139.6V26.3h24.4v110.9
			c0,12.7,4.3,19,12.8,19c8.3,0,12.5-6.3,12.5-19V26.3h24.4v110.9c0,12.5-3.3,22.6-10,30.3c-6.6,7.7-16.1,11.6-28.4,11.6
			c-11.5,0-20.3-3.4-26.5-10.3C585.9,162,582.9,152.3,582.9,139.6z M673.5,175.2V26.3h41.9c23,0,34.5,12.3,34.5,36.9
			c0,8.7-2,16.2-5.9,22.4c-4,6.2-9.2,10.7-15.8,13.2c6.3,1.4,11.5,5.2,15.6,11.4c4.1,6.2,6.1,13.5,6.1,21.8
			c0,13.7-3.3,24.3-9.8,31.8c-6.5,7.5-14.4,11.3-23.5,11.3H673.5z M697.6,89.9h12.8c5,0,8.3-1.1,10.1-3.3c1.8-2.2,2.7-6.1,2.7-11.9
			V63.2c0-5.7-0.9-9.7-2.7-11.9c-1.8-2.2-5.2-3.3-10.1-3.3h-12.8V89.9z M697.6,153.8h12.8c10.1,0,15.2-6,15.2-18.1v-10.1
			c0-5.7-1.4-10-4.2-12.6c-2.8-2.7-7.3-4-13.7-4h-10.1V153.8z M765.1,175.2V26.3h41c22,0,33,12.3,33,36.9c0,18-6.3,29.9-19,35.7
			c5.7,1.4,10.6,5.2,14.4,11.4c3.9,6.2,5.8,13.5,5.8,21.8c0,13.9-3.1,24.5-9.4,32c-6.2,7.4-14.1,11.1-23.6,11.1H765.1z M789.5,89.9
			h11.3c5.2,0,8.8-1.1,11-3.4c2.2-2.3,3.3-6.2,3.3-11.7V63.2c0-5.5-1.1-9.5-3.3-11.7c-2.2-2.3-5.8-3.4-11-3.4h-11.3V89.9z
			 M789.5,153.8h10.1c10.3,0,15.5-6,15.5-18.1v-10.1c0-5.7-1.1-10-3.4-12.6c-2.3-2.7-6.3-4-12-4h-10.1V153.8z M855.7,175.2V26.3
			h24.1v127.5h38.3v21.4H855.7z M932.1,175.2V26.3h62.4V48h-36.9v38h30.6V109h-30.6v44.9h36.9v21.4H932.1z"/>
	</g>
	<path class="st1" d="M34.6,162.2c-17.4-17.2-26.2-38.2-26.2-63c0-24.8,8.7-45.8,26.2-63.2C52,18.6,73.1,10,97.9,10
		c24.6,0,45.6,8.7,63,26c17.4,17.3,26.2,38.4,26.2,63.2c0,24.8-8.7,45.8-26.2,63c-17.4,17.2-38.4,25.9-63,25.9
		C73.1,188,52,179.4,34.6,162.2z M45.6,128.6c0,2,1,3,3,3h48.7c1.6,0,2.6-0.4,3-1.3c0.4-0.9,0.2-1.7-0.6-2.5l-16.6-22
		c7.5-3.2,11.3-9.2,11.3-18.1c0-6.3-2-11.4-6.1-15.2c-4.1-3.8-9.7-5.6-16.8-5.6H49.2c-2.4,0-3.6,1.1-3.6,3.3V128.6z M105.9,128.6
		c0,0.6,0.2,1.2,0.7,1.9c0.5,0.7,0.9,1,1.3,1h23.8c7.5,0,13.5-1.7,17.8-5.2c4.4-3.5,6.5-8.3,6.5-14.4c0-7.9-3.1-13.2-9.2-15.8
		c2.4-3,3.6-6.7,3.6-11.3c0-12.1-6.7-18.1-20.2-18.1h-21.1c-2.2,0-3.3,1.2-3.3,3.6V128.6z"/>
</g>
</svg>
