<?xml version="1.0" encoding="utf-8"?>
<!-- Generator: Adobe Illustrator 21.0.0, SVG Export Plug-In . SVG Version: 6.00 Build 0)  -->
<!DOCTYPE svg PUBLIC "-//W3C//DTD SVG 1.1//EN" "http://www.w3.org/Graphics/SVG/1.1/DTD/svg11.dtd">
<svg version="1.1" id="Layer_1" xmlns="http://www.w3.org/2000/svg" xmlns:xlink="http://www.w3.org/1999/xlink" x="0px" y="0px"
	 viewBox="0 0 878.8 622.7" style="enable-background:new 0 0 878.8 622.7;" xml:space="preserve">
<style type="text/css">
	.st0{fill:#DC7676;}
	.st1{fill:#F8E2D2;}
	.st2{fill:#FBAE24;}
</style>
<g>
	<path class="st0" d="M108.8,181.8C98.4,192.5,95.9,206.9,95,212c-2.6,15,0.7,26.8,2.5,32.8c1.9,6.3,6.5,19.2,18,31.5
		c7,7.5,14.6,15.7,26.5,18.3c5.3,1.2,8.4,0.5,38-7.5c18.5-5,27.9-7.5,32.5-9c19.4-6.1,18.3-7.2,34.8-12c13.6-4,16.6-3.9,22.5-7.8
		c2.7-1.8,12.7-8.4,17.5-21c3.3-8.6,2.3-15.5,0.5-29.3c-1.9-14.4-3.4-25.4-11.3-37.3c-2.9-4.4-9.5-14.4-21.7-20
		c-7.3-3.4-16.3-5-39.3-1.3c-24.8,4-28.9,8.3-58.5,16C125.7,173.7,118.1,172.1,108.8,181.8z"/>
	<g>
		<g>
			<g>
				
					<ellipse transform="matrix(0.9642 -0.265 0.265 0.9642 -89.3301 55.466)" class="st0" cx="160.9" cy="358.8" rx="17.8" ry="17.8"/>
				<path class="st0" d="M184.8,374.2l-36.6,10.1c-5.5,1.5-8.7,7.1-7.2,12.6l13.5,48.9c1.5,5.5,7.1,8.7,12.6,7.2l9.5,34.7
					c1.7,6.3,8.2,9.9,14.4,8.2l14-3.8c6.3-1.7,9.9-8.2,8.2-14.4l-9.5-34.7c5.5-1.5,8.7-7.1,7.2-12.6l-13.5-48.9
					C195.9,375.9,190.3,372.7,184.8,374.2z"/>
			</g>
			<g>
				<path class="st1" d="M208.5,247.3c-1.1,0.3-2,0.9-2.5,1.8c-0.1,0.1-0.2,0.3-0.3,0.4c-0.8,1.2-1,3-0.4,4.3
					c1.1,2.4,2.7,3.4,4.7,3.2c0.5-0.1,0.9-0.1,1.2-0.2c1.1-0.3,1.9-0.8,2.6-1.7c0.6-0.7,1-1.6,1.2-2.5c0.3-1.9-1-3.7-2.5-4.7
					C211.4,247.2,209.9,246.9,208.5,247.3z M210.2,254.1c-0.5,0.1-1.1,0-1.4-0.2c-1.4-0.8-1.7-3.1,0-3.7c0.9-0.3,2.1-0.2,2.7,0.6
					C212.4,252.1,211.6,253.9,210.2,254.1z"/>
				<path class="st1" d="M227.8,177.6c2.6-0.7,3.5-3.4,2.8-5.9c-0.7-2.5-2.7-4.3-5.4-3.6c-2.6,0.7-3.5,3.4-2.8,5.8
					C223.1,176.5,225.2,178.4,227.8,177.6z"/>
				<path class="st1" d="M186,219.2c0.7,2.5,2.8,4.3,5.4,3.6c2.6-0.7,3.5-3.4,2.8-5.9c-0.7-2.5-2.7-4.3-5.4-3.6
					C186.1,214.1,185.3,216.7,186,219.2z"/>
				<path class="st1" d="M149.4,230.8c-1-0.8-2.4-0.9-3.8-0.6c-1.8,0.5-2.7,1.9-2.3,3.4c0.4,1.6,2,2.3,3.7,1.8
					c1.4-0.4,2.5-1.2,3-2.4L149.4,230.8z"/>
				<path class="st1" d="M141,252.7c-4.9,1.4-9.8,5.8-11.6,10.7c-2.1,5.7-0.7,13.1,3.3,18.1c3.6,4.5,11.5,6.8,17.6,5.1
					c1.1-0.3,2.1-0.7,3-1.3c7.2-4.3,10.9-13.1,8.5-20.4c-1.4-4.2-4-8-6.6-9.8C150.9,252.4,145.6,251.5,141,252.7z M131.6,270.6
					c-0.4-1.4,0.2-2.9,1.5-3.7c1-0.6,2,0.1,3,0c1.4-0.1,0.9-1.5,1.6-2.4c1.3-1.7,4.1-1.6,4.8,0.6c0.5,1.5-0.1,3-0.5,4.4
					c-0.1,0.4-0.2,0.7-0.2,1.1c-0.2,1.1-0.2,2.2-0.9,3.1c-0.5,0.7-1,0.6-1.8,0.4c-1.3-0.3-2.6-0.8-3.8-1.2
					C133.8,272.5,132.1,272.1,131.6,270.6z M155.3,277.2c-0.6,1.5-1.7,3-3.4,4c-0.9,0.5-1.9,1-2.9,1.3c-1,0.3-2.1,0.5-3.1,0.4
					c-1.5-0.1-2.8-0.6-3.9-1.3c-0.9-0.6-1.8-1.3-2.2-2.2c-0.2-0.3-0.5-0.8-0.1-1.1c0.3-0.2,1-0.1,1.4-0.1c1,0,2.1,0,3.1-0.2
					c1-0.2,2-0.5,3-0.7c1.2-0.3,2.3-0.5,3.4-0.9c0.9-0.4,1.9-0.6,2.7-1.1c0.6-0.4,1.8-1.8,2.3-0.8
					C155.7,275.4,155.6,276.4,155.3,277.2z M157.8,262.4c0.5,1.8-0.4,3.4-1.6,4.7c-1.2,1.2-2,3.7-4,3.7c-1.1,0-2.4-1.4-3.1-2.2
					c-1.2-1.4-2.3-2.8-2.7-4.6c-0.3-1.5,1.4-3.1,2.7-3.4c0.9-0.2,1.4,0.1,1.8,0.8c0.5,0.8,1.1,1.4,2,0.6c0.5-0.4,0.5-0.9,1.1-1.1
					C155.7,260.5,157.3,260.8,157.8,262.4z"/>
				<path class="st1" d="M130.1,194.2c-2.6,0.7-3.3,3.2-3,5l8-2.2C134.7,195.2,132.9,193.4,130.1,194.2z"/>
				<path class="st1" d="M197,251.9c-0.1-0.1-0.3-0.1-0.4-0.2c-0.9-0.5-1.9-0.6-3-0.3c-1.4,0.4-2.6,1.4-3.2,2.6
					c-0.8,1.6-1,3.8,0.3,5.3c0.6,0.7,1.4,1.2,2.3,1.5c1.1,0.4,2,0.4,3.1,0.1l0,0c0.4-0.1,0.8-0.2,1.2-0.4c1.9-0.8,2.7-2.6,2.4-5.2
					C199.4,254,198.3,252.5,197,251.9z M196.7,257.2c-0.2,0.3-0.6,0.7-1.1,0.9c-1.4,0.6-2.9-0.6-2.8-2.1c0.1-1,1.1-1.7,2-1.9
					C196.6,253.7,197.4,255.8,196.7,257.2z"/>
				<path class="st1" d="M197.4,237.2c-4.9,1.4-9.8,5.8-11.6,10.7c-2.1,5.6-0.7,13.1,3.3,18.1c3.6,4.5,11.5,6.8,17.7,5.1
					c1.1-0.3,2.1-0.7,3-1.3c7.2-4.3,10.9-13.1,8.5-20.4c-1.4-4.2-4-8-6.6-9.8C207.3,236.9,202,236,197.4,237.2z M202.4,242.9
					c0-0.7,0.4-1.1,1-1.5c0.9-0.6,2.1-0.9,3.3-0.9c0.9,0,1.7,0.2,2.4,0.5c0.3,0.2,0.9,0.3,1.1,0.6c0.4,0.5,0,1-0.6,1.1
					c-0.7,0.1-1.3-0.5-2-0.3c-1.4,0.2-2.8,0.3-4.1,1C203,243.6,202.4,243.6,202.4,242.9z M188.2,247.6c0-0.4,0.5-0.7,0.7-1.1
					c0.4-0.7,1.1-1.3,1.8-1.7c1-0.6,2.3-0.9,3.3-0.9c0.7,0,1.3,0.2,1.6,0.8c0.3,0.6-0.2,0.9-0.8,0.9c-1.5,0-2.7,0.7-4,1.2
					c-0.7,0.3-0.9,1-1.6,1.3C188.7,248.5,188.1,248.3,188.2,247.6z M196.3,262.1L196.3,262.1c-1.3,0.4-2.5,0.3-3.8-0.1
					c-1.1-0.4-2.1-1-2.8-1.9c-1.6-1.9-1.4-4.7-0.4-6.6c0.8-1.5,2.2-2.7,4-3.2c1.4-0.4,2.8-0.2,3.9,0.4c0.1,0.1,0.2,0.1,0.3,0.2
					c1.7,0.8,3.1,2.6,3.2,4.4c0.3,3.1-0.8,5.4-3.1,6.4C197.2,261.8,196.7,262,196.3,262.1z M208.2,264.5l-5.8,1.6
					c-0.5,0.1-1-0.2-1.1-0.6c-0.1-0.5,0.2-1,0.6-1.1l5.8-1.6c0.5-0.1,1,0.2,1.1,0.6C209,263.9,208.7,264.4,208.2,264.5z
					 M216.2,252.8c-0.2,1.1-0.7,2.2-1.4,3c-0.9,1.1-1.9,1.7-3.2,2.1c-0.4,0.1-0.9,0.2-1.4,0.3c-2.6,0.3-4.7-1.1-6-3.9
					c-0.7-1.6-0.5-3.9,0.5-5.4c0.1-0.1,0.1-0.2,0.2-0.3c0.7-1.1,1.8-2,3.2-2.3c1.7-0.5,3.6-0.2,5.1,0.7
					C215.1,248.1,216.7,250.4,216.2,252.8z"/>
				<path class="st1" d="M222.2,140.3l-96.8,26.6c-27.5,7.6-43.7,36-36.1,63.5l8.6,31.3c7.6,27.5,36,43.7,63.5,36.1l7.7-2.1
					l13.5,48.9l42.5-64.3l33.1-9.1c27.5-7.6,43.7-36,36.1-63.5l-8.6-31.3C278.1,148.9,249.7,132.8,222.2,140.3z M235.3,163.4
					l5.7,9.2l0.5-10.9l2.1-0.6l6,9.1l0.2-10.8l2.6-0.7L252,173l-2.5,0.7l-6-9.2l-0.5,11l-2.5,0.7l-7.8-12L235.3,163.4z M256.7,194.7
					c-1.5,0.4-2.7,1.7-3.1,2.9l2.6,9.4l-2.5,0.7l-3.6-13.1l2.5-0.7l0.5,1.9c0.6-1.3,2-2.9,4.1-3.5c2.8-0.8,4.6,0.3,5.4,3.1l2.5,9.2
					l-2.5,0.7l-2.3-8.4C259.7,194.6,258.4,194.2,256.7,194.7z M244.4,193.8c-0.8,0.2-1.8-0.3-2-1.1c-0.2-0.9,0.3-1.8,1.2-2
					c0.9-0.2,1.8,0.2,2,1.1C245.8,192.7,245.3,193.6,244.4,193.8z M246.3,195.6l3.6,13.1l-2.5,0.7l-3.6-13.1L246.3,195.6z
					 M196.7,216.2c1,3.8-0.6,7.6-4.7,8.7c-4.1,1.1-7.5-1.3-8.5-5.1c-1-3.8,0.7-7.6,4.7-8.7C192.3,210,195.7,212.5,196.7,216.2z
					 M175.9,187.8c-2.4,0.1-5.2,0.2-5.9-2.6c-0.6-2.1,0.7-4.4,3.9-5.3c2.3-0.6,4.1-0.3,5.5,0.5l-0.6,2c-1-0.7-2.7-1-4.3-0.5
					c-1.7,0.5-2.5,1.4-2.2,2.5c0.3,1.1,1.8,1.1,3.6,1.1c2.4-0.1,5.3-0.2,6.2,2.8c0.6,2.3-0.7,4.5-4.2,5.5c-2.2,0.6-4.3,0.5-6-0.5
					l0.7-2.1c1.2,0.7,3.2,1.2,4.9,0.7c1.9-0.5,2.6-1.5,2.3-2.7C179.3,187.8,177.7,187.8,175.9,187.8z M129.6,192.1
					c3.9-1.1,7.2,1.3,8.3,5.3l0.2,0.6l-10.4,2.9c0.8,2.2,2.9,3.6,5.6,2.9c1.4-0.4,2.8-1.3,3.5-2.6l1.6,1.3c-1,1.6-2.6,2.8-4.7,3.4
					c-3.9,1.1-7.6-0.9-8.7-5C123.9,197,125.8,193.2,129.6,192.1z M146.6,237.5c-2.2,0.6-5-0.2-5.8-3.1c-0.8-3,1.2-5,3.4-5.6
					c1.8-0.5,3.5-0.3,4.8,0.6l-0.6-2.2c-0.4-1.6-2.1-2.2-3.9-1.7c-1.5,0.4-2.6,1.3-3.5,2.8l-1.5-1.4c1.1-1.8,2.7-3,4.8-3.6
					c2.9-0.8,5.6-0.2,6.5,3.1l2.4,8.9l-2.5,0.7l-0.4-1.4C149.7,235.9,148.3,237,146.6,237.5z M136.2,230l2.6,9.3l-2.5,0.7l-2.3-8.5
					c-0.6-2.2-1.9-2.5-3.6-2.1c-1.5,0.4-2.7,1.7-3.1,2.9l2.6,9.4l-2.5,0.7l-5-18.2l2.5-0.7l1.9,6.9c0.6-1.3,2-2.9,4.1-3.5
					C133.6,226.2,135.4,227.2,136.2,230z M109.1,192.7l2.7-0.7l4.3,15.8l8.2-2.3l0.7,2.4l-11,3L109.1,192.7z M112.6,235.6l-0.5,11
					l-2.5,0.7l-7.8-12l2.6-0.7l5.7,9.2l0.5-10.9l2.1-0.6l6,9.1l0.2-10.8l2.6-0.7l-0.5,14.3l-2.5,0.7L112.6,235.6z M153.9,286.4
					c-1,0.6-2.1,1.1-3.3,1.4c-6.7,1.8-15-0.6-18.9-5.5c-4.3-5.4-5.7-13.3-3.5-19.3c1.9-5.2,7.1-9.9,12.4-11.4
					c5-1.4,10.7-0.4,15.2,2.6c2.9,2,5.6,6,7.1,10.4C165.5,272.4,161.6,281.8,153.9,286.4z M142.5,200l-2.2-8.1l-2.2,0.6l-0.6-2.2
					l2.2-0.6l-1-3.6l2.5-0.7l1,3.6l2.7-0.7l0.6,2.2l-2.7,0.7l2.1,7.5c0.3,0.9,0.9,1.5,1.7,1.3c0.6-0.2,1-0.5,1.2-0.9l1.1,1.7
					c-0.4,0.6-1,1.2-2.3,1.5C144.4,202.9,143,202,142.5,200z M160.9,233.5c-2.1,0.6-3.5-0.3-4-2.4l-2.2-8.1l-2.2,0.6l-0.6-2.2
					l2.2-0.6l-1-3.6l2.4-0.7l1,3.6l2.7-0.7l0.6,2.2l-2.7,0.7l2.1,7.5c0.3,0.9,0.9,1.5,1.7,1.3c0.6-0.2,1-0.5,1.2-0.9l1.1,1.7
					C162.8,232.6,162.1,233.2,160.9,233.5z M157.1,194.9l-2.6-9.3l2.5-0.7l2.3,8.5c0.6,2.2,1.9,2.5,3.6,2.1c1.5-0.4,2.7-1.7,3.1-2.9
					l-2.6-9.4l2.4-0.7l3.6,13.1l-2.4,0.7l-0.5-1.8c-0.7,1.4-2.1,2.9-4.1,3.4C159.6,198.7,157.8,197.7,157.1,194.9z M173.3,235.3
					L173,233c0.3,0.1,0.8,0,1.1-0.1c0.9-0.2,1.4-0.7,1.6-1.8l0.3-2l-9.1-11.8l2.6-0.7l6.9,9.2l1.3-11.4l2.6-0.7l-2.2,17.4
					c-0.3,2.3-1.5,3.4-3.4,4C174.4,235.2,173.7,235.3,173.3,235.3z M210.3,270.9c-1,0.6-2.1,1.1-3.3,1.4c-6.7,1.8-15-0.6-18.9-5.5
					c-4.3-5.4-5.7-13.3-3.5-19.3c1.9-5.2,7.1-9.9,12.4-11.4c5-1.4,10.7-0.4,15.2,2.6c2.9,2,5.6,6,7.1,10.4
					C221.9,256.9,218,266.3,210.3,270.9z M212.9,218.9l-2.5,0.7l-0.5-1.8c-0.7,1.4-2.1,2.9-4.1,3.4c-2.8,0.8-4.6-0.3-5.3-3l-2.6-9.3
					l2.5-0.7l2.3,8.5c0.6,2.2,1.9,2.5,3.6,2.1c1.5-0.4,2.7-1.7,3.1-2.9l-2.6-9.4l2.5-0.7L212.9,218.9z M201.9,186.7l-5.9-4.5
					l-1.4,2.6l1,3.6l-2.5,0.7l-5-18.2l2.5-0.7l3.2,11.7l4.5-8.4l3.1-0.8l-4,7.5l7.7,5.6L201.9,186.7z M207.1,175.2l2.6,9.4l-2.5,0.7
					l-3.6-13.1l2.5-0.7l0.5,1.9c0.6-1.3,2-2.9,4.1-3.5c2.8-0.8,4.6,0.3,5.4,3.1l2.5,9.2l-2.4,0.7l-2.3-8.4c-0.6-2.2-1.9-2.6-3.6-2.1
					C208.7,172.7,207.6,174,207.1,175.2z M227.6,215.2c-2.1,0.6-3.5-0.3-4-2.4l-2.2-8.1l-2.2,0.6l-0.6-2.2l2.2-0.6l-1-3.6l2.5-0.7
					l1,3.6l2.7-0.7l0.6,2.2l-2.7,0.7l2.1,7.5c0.3,0.9,0.9,1.5,1.7,1.3c0.6-0.2,1-0.5,1.2-0.9l1.1,1.7
					C229.5,214.3,228.8,214.8,227.6,215.2z M224.6,166c4.1-1.1,7.5,1.3,8.5,5.1c1,3.8-0.6,7.6-4.7,8.7c-4.1,1.1-7.5-1.3-8.5-5.1
					C218.8,171,220.5,167.1,224.6,166z M227.2,195.4l2.5-0.7l1.9,6.9c0.6-1.3,2-2.9,4.1-3.5c2.8-0.8,4.6,0.3,5.4,3l2.6,9.3l-2.4,0.7
					l-2.3-8.5c-0.6-2.2-1.9-2.5-3.6-2.1c-1.5,0.4-2.7,1.7-3.1,2.9l2.6,9.4l-2.5,0.7L227.2,195.4z M266.7,255.4
					c-1,0.6-2.1,1.1-3.3,1.4c-6.7,1.8-15-0.6-18.9-5.5c-4.3-5.4-5.7-13.3-3.5-19.3c1.9-5.2,7.1-9.9,12.4-11.4
					c5-1.4,10.7-0.4,15.2,2.6c2.9,2,5.6,6,7.1,10.4C278.3,241.4,274.4,250.8,266.7,255.4z M277.8,201l-5.9-4.5l-1.4,2.6l1,3.6
					l-2.5,0.7l-5-18.2l2.5-0.7l3.2,11.7l4.5-8.4l3.1-0.8l-4,7.5l7.7,5.6L277.8,201z"/>
				<path class="st1" d="M253.7,221.7c-4.9,1.4-9.8,5.8-11.6,10.7c-2.1,5.6-0.7,13.1,3.3,18.1c3.6,4.5,11.5,6.8,17.7,5.1
					c1.1-0.3,2.1-0.7,3-1.3c7.2-4.3,10.9-13.1,8.5-20.4c-1.4-4.2-4-8-6.6-9.8C263.7,221.4,258.4,220.5,253.7,221.7z M245.1,238
					c-0.5-0.5-0.1-0.9,0.4-1.1c1.4-0.5,2.3-1.5,3.4-2.5c0.5-0.5,0.5-1.3,1-1.8c0.4-0.4,1-0.4,1.2,0.2c0.1,0.4-0.2,0.9-0.3,1.2
					c-0.1,0.8-0.6,1.6-1.1,2.2c-0.8,0.9-1.8,1.6-2.8,1.9C246.2,238.4,245.6,238.5,245.1,238z M252.3,247.7c-1.2,0.7-1.5-0.2-0.9-1.2
					c0.7-1.2,1.9-2,2.1-3.4c0.1-0.9-0.8-1.3-1.6-1.7c-0.8-0.4-1.5-0.8-2.2-1.1c-0.6-0.2-3-1.1-1.2-1.7c0.6-0.2,1.5,0,2.2,0.1
					c0.1,0,0.2,0.1,0.3,0.1c1.7,0.5,3.5,0.9,5.2,1.5c2.7,1.1-0.9,4.1-1.8,5.3C253.8,246.4,253.2,247.2,252.3,247.7z M265.2,249
					c-0.4-0.1-0.8-0.1-1.2-0.1c-0.4,0-0.8-0.1-1.1-0.1c-0.9,0.1-1.9,0.3-2.6,0.8c-0.6,0.4-1.2,0.8-1.8,1.3c-0.3,0.2-0.6,0.6-0.9,0.8
					c-0.9,0.4-0.2-1.6-0.1-1.9c0.3-0.9,1.1-1.8,1.8-2.5c0.8-0.9,1.7-1.2,2.8-1.2c0.7,0,1.3,0.4,1.9,0.6c0.6,0.2,1.2,0.6,1.7,1.1
					c0.3,0.2,1,0.7,1.1,1.1C266.9,249.5,265.5,249.1,265.2,249z M267.5,235.4c-0.5,0.7-0.9,1.4-1.3,2.1c-0.5,0.7-1.1,1.5-0.5,2.3
					c0.9,1.1,2.4,1.2,3.6,1.8c1,0.5,1.2,1.4-0.2,1.5c-1,0-1.9-0.4-2.9-0.7c-1.4-0.5-6-1.3-4.3-3.6c1.1-1.4,2.5-2.7,3.7-3.9
					c0.1-0.1,0.1-0.1,0.2-0.2c0.5-0.5,1.2-1.1,1.8-1.3C269.5,232.9,267.8,234.9,267.5,235.4z M270.1,231.1c-0.2,0.7-0.8,0.9-1.4,1.1
					c-1,0.3-2.3,0.2-3.4-0.2c-0.8-0.3-1.6-0.7-2.1-1.3c-0.2-0.3-0.8-0.6-0.9-0.9c-0.2-0.6,0.4-1,0.9-0.8c0.7,0.2,1.1,0.9,1.8,1
					c1.4,0.3,2.7,0.7,4.2,0.4C269.8,230.2,270.3,230.4,270.1,231.1z"/>
			</g>
		</g>
		<path class="st0" d="M242.8,10.1L41.6,65.4C16.8,72.2,2.1,97.9,9,122.7l125.8,457.7c6.8,24.9,32.5,39.5,57.4,32.6l201.2-55.3
			c24.9-6.8,39.5-32.5,32.6-57.4L300.2,42.7C293.3,17.9,267.7,3.2,242.8,10.1z M125,81.4l54.4-14.9c4.9-1.4,10,1.5,11.4,6.5
			s-1.5,10-6.5,11.4l-54.4,14.9c-4.9,1.4-10-1.5-11.4-6.5C117.1,87.8,120,82.7,125,81.4z M287.5,566.4c-15,4.1-30.6-4.7-34.7-19.7
			c-4.1-15,4.7-30.6,19.7-34.7c15-4.1,30.6,4.7,34.7,19.7C311.4,546.8,302.6,562.3,287.5,566.4z M394.9,458.5L140,528.5L39.8,163.7
			l254.9-70.1L394.9,458.5z"/>
	</g>
	<path class="st0" d="M771.7,108.6L527,162v-10.6h-11V226h11v-10.8l42.1,9.2c0,0.2,0,0.4,0,0.6v43.3c0,12,9.7,21.7,21.7,21.7h73.9
		c12,0,21.7-9.7,21.7-21.7V250l85.3,18.6V108.6z M665,268.1h-74.4v-39.1l74.4,16.2V268.1z"/>
	<g>
		<path class="st2" d="M464.4,324.1h17.7c8.2,0,12.7,5.5,12.7,12.2c0,6.6-4.5,12.1-12.7,12.1h-9.6v13.5h-8V324.1z M481,331h-8.5
			v10.4h8.5c3.2,0,5.5-2,5.5-5.2C486.6,333.1,484.2,331,481,331z"/>
		<path class="st2" d="M499.6,324.1h7.2v37.7h-7.2V324.1z"/>
		<path class="st2" d="M526.3,333.8c8.1,0,13.7,6.1,13.7,15v1.6h-20.3c0.5,3.5,3.2,6.3,7.9,6.3c2.5,0,5.5-1,7.3-2.7l3.2,4.6
			c-2.8,2.5-7,3.8-11.3,3.8c-8.3,0-14.6-5.6-14.6-14.4C512.1,340.2,518,333.8,526.3,333.8z M519.5,345.6H533c-0.2-2.6-2-6.1-6.7-6.1
			C521.8,339.6,519.9,342.9,519.5,345.6z"/>
		<path class="st2" d="M561.6,359c-1.9,2.2-5.1,3.5-8.7,3.5c-4.4,0-9.5-2.9-9.5-9.1c0-6.4,5.1-8.7,9.5-8.7c3.6,0,6.8,1.1,8.7,3.3
			v-3.8c0-2.8-2.4-4.6-6-4.6c-2.9,0-5.7,1.1-8,3.2l-2.7-4.8c3.3-2.9,7.6-4.3,11.9-4.3c6.2,0,11.9,2.5,11.9,10.4v17.7h-7.2V359z
			 M561.6,351.9c-1.2-1.6-3.5-2.4-5.8-2.4c-2.8,0-5.1,1.5-5.1,4.1c0,2.5,2.3,4,5.1,4c2.3,0,4.6-0.8,5.8-2.4V351.9z"/>
		<path class="st2" d="M576.6,353.3c2,1.9,6.1,3.7,9.4,3.7c3.1,0,4.6-1.1,4.6-2.8c0-1.9-2.4-2.6-5.5-3.2c-4.7-0.9-10.8-2-10.8-8.5
			c0-4.6,4-8.6,11.2-8.6c4.6,0,8.3,1.6,11,3.7l-2.8,4.9c-1.6-1.8-4.8-3.2-8.1-3.2c-2.6,0-4.3,1-4.3,2.5c0,1.7,2.2,2.3,5.2,2.9
			c4.7,0.9,11,2.1,11,8.9c0,5-4.2,8.8-11.8,8.8c-4.8,0-9.3-1.6-12.2-4.2L576.6,353.3z"/>
		<path class="st2" d="M615.3,333.8c8.1,0,13.7,6.1,13.7,15v1.6h-20.3c0.5,3.5,3.2,6.3,7.9,6.3c2.5,0,5.5-1,7.3-2.7l3.2,4.6
			c-2.8,2.5-7,3.8-11.3,3.8c-8.3,0-14.6-5.6-14.6-14.4C601.1,340.2,607,333.8,615.3,333.8z M608.5,345.6H622c-0.2-2.6-2-6.1-6.7-6.1
			C610.8,339.6,608.9,342.9,608.5,345.6z"/>
		<path class="st2" d="M667.1,358.4c-1.9,2.1-5.1,4.1-9.6,4.1c-6,0-8.8-3.3-8.8-8.6v-19.4h7.2v16.6c0,3.8,2,5,5,5
			c2.8,0,5-1.5,6.2-3.1v-18.5h7.2v27.3h-7.2V358.4z"/>
		<path class="st2" d="M682.2,353.3c2,1.9,6.1,3.7,9.4,3.7c3.1,0,4.6-1.1,4.6-2.8c0-1.9-2.4-2.6-5.5-3.2c-4.7-0.9-10.8-2-10.8-8.5
			c0-4.6,4-8.6,11.2-8.6c4.6,0,8.3,1.6,11,3.7l-2.8,4.9c-1.6-1.8-4.8-3.2-8.1-3.2c-2.6,0-4.3,1-4.3,2.5c0,1.7,2.2,2.3,5.2,2.9
			c4.7,0.9,11,2.1,11,8.9c0,5-4.2,8.8-11.8,8.8c-4.8,0-9.3-1.6-12.2-4.2L682.2,353.3z"/>
		<path class="st2" d="M720.8,333.8c8.1,0,13.7,6.1,13.7,15v1.6h-20.3c0.5,3.5,3.2,6.3,7.9,6.3c2.5,0,5.5-1,7.3-2.7l3.2,4.6
			c-2.8,2.5-7,3.8-11.3,3.8c-8.3,0-14.6-5.6-14.6-14.4C706.7,340.2,712.5,333.8,720.8,333.8z M714.1,345.6h13.5
			c-0.2-2.6-2-6.1-6.7-6.1C716.3,339.6,714.4,342.9,714.1,345.6z"/>
		<path class="st2" d="M755.6,355.1v-14.3h-4.5v-6.3h4.5v-7.5h7.2v7.5h5.5v6.3h-5.5v12.3c0,1.7,0.9,3,2.5,3c1.1,0,2.1-0.4,2.5-0.8
			l1.5,5.4c-1.1,1-3,1.8-6,1.8C758.3,362.5,755.6,359.9,755.6,355.1z"/>
		<path class="st2" d="M791.8,345.2c0-3.8-2-5-5.1-5c-2.8,0-5,1.6-6.2,3.2v18.4h-7.2v-37.7h7.2v14c1.8-2.1,5.1-4.2,9.6-4.2
			c6,0,8.9,3.3,8.9,8.6v19.4h-7.2V345.2z"/>
		<path class="st2" d="M818.5,333.8c8.1,0,13.7,6.1,13.7,15v1.6h-20.3c0.5,3.5,3.2,6.3,7.9,6.3c2.5,0,5.5-1,7.3-2.7l3.2,4.6
			c-2.8,2.5-7,3.8-11.3,3.8c-8.3,0-14.6-5.6-14.6-14.4C804.4,340.2,810.2,333.8,818.5,333.8z M811.8,345.6h13.5
			c-0.2-2.6-2-6.1-6.7-6.1C814,339.6,812.1,342.9,811.8,345.6z"/>
		<path class="st2" d="M466.2,414.4c2.7,2.8,6.8,5.1,12,5.1c4.4,0,6.6-2.1,6.6-4.2c0-2.8-3.3-3.8-7.6-4.8
			c-6.2-1.4-14.1-3.1-14.1-11.5c0-6.3,5.4-11.4,14.3-11.4c6,0,11,1.8,14.7,5.3l-4.5,5.9c-3.1-2.8-7.1-4.1-10.8-4.1
			c-3.6,0-5.5,1.6-5.5,3.8c0,2.5,3.2,3.3,7.5,4.4c6.2,1.4,14.1,3.3,14.1,11.7c0,6.9-4.9,12.1-15.1,12.1c-7.2,0-12.4-2.4-16-6
			L466.2,414.4z"/>
		<path class="st2" d="M510.9,397.8c5.6,0,9,2.4,10.8,5l-4.7,4.4c-1.3-1.9-3.3-2.9-5.8-2.9c-4.4,0-7.4,3.2-7.4,7.9s3.1,8,7.4,8
			c2.5,0,4.5-1.1,5.8-2.9l4.7,4.4c-1.8,2.5-5.2,5-10.8,5c-8.4,0-14.5-5.9-14.5-14.4C496.5,403.8,502.5,397.8,510.9,397.8z"/>
		<path class="st2" d="M542.9,423c-1.9,2.2-5.1,3.5-8.7,3.5c-4.4,0-9.5-2.9-9.5-9.1c0-6.4,5.1-8.7,9.5-8.7c3.6,0,6.8,1.1,8.7,3.3
			v-3.8c0-2.8-2.4-4.6-6-4.6c-2.9,0-5.7,1.1-8,3.2l-2.7-4.8c3.3-2.9,7.6-4.3,11.9-4.3c6.2,0,11.9,2.5,11.9,10.4v17.7h-7.2V423z
			 M542.9,415.9c-1.2-1.6-3.5-2.4-5.8-2.4c-2.8,0-5.1,1.5-5.1,4.1c0,2.5,2.3,4,5.1,4c2.3,0,4.6-0.8,5.8-2.4V415.9z"/>
		<path class="st2" d="M557.2,388.1h7.2v37.7h-7.2V388.1z"/>
		<path class="st2" d="M587.9,423c-1.9,2.2-5.1,3.5-8.7,3.5c-4.4,0-9.5-2.9-9.5-9.1c0-6.4,5.1-8.7,9.5-8.7c3.6,0,6.8,1.1,8.7,3.3
			v-3.8c0-2.8-2.4-4.6-6-4.6c-2.9,0-5.7,1.1-8,3.2l-2.7-4.8c3.3-2.9,7.6-4.3,11.9-4.3c6.2,0,11.9,2.5,11.9,10.4v17.7h-7.2V423z
			 M587.9,415.9c-1.2-1.6-3.5-2.4-5.8-2.4c-2.8,0-5.1,1.5-5.1,4.1c0,2.5,2.3,4,5.1,4c2.3,0,4.6-0.8,5.8-2.4V415.9z"/>
		<path class="st2" d="M616.9,388.1h14.9c11.8,0,20,7.5,20,18.9c0,11.4-8.2,18.8-20,18.8h-14.9V388.1z M631.7,418.8
			c7.5,0,11.8-5.4,11.8-11.8c0-6.7-4.1-11.8-11.8-11.8h-6.8v23.6H631.7z"/>
		<path class="st2" d="M673.7,423c-1.9,2.2-5.1,3.5-8.7,3.5c-4.4,0-9.5-2.9-9.5-9.1c0-6.4,5.1-8.7,9.5-8.7c3.6,0,6.8,1.1,8.7,3.3
			v-3.8c0-2.8-2.4-4.6-6-4.6c-2.9,0-5.7,1.1-8,3.2l-2.7-4.8c3.3-2.9,7.6-4.3,11.9-4.3c6.2,0,11.9,2.5,11.9,10.4v17.7h-7.2V423z
			 M673.7,415.9c-1.2-1.6-3.5-2.4-5.8-2.4c-2.8,0-5.1,1.5-5.1,4.1c0,2.5,2.3,4,5.1,4c2.3,0,4.6-0.8,5.8-2.4V415.9z"/>
		<path class="st2" d="M690.4,430.6c1.9,0,3.1-0.5,3.8-2l1-2.3l-11.1-27.7h7.7l7.1,19l7.1-19h7.8L701,430.3c-2,5.1-5.7,6.5-10.4,6.6
			c-0.8,0-2.7-0.2-3.6-0.4l1.1-6.5C688.8,430.4,689.7,430.6,690.4,430.6z"/>
		<path class="st2" d="M717.8,417.3c2,1.9,6.1,3.7,9.4,3.7c3.1,0,4.6-1.1,4.6-2.8c0-1.9-2.4-2.6-5.5-3.2c-4.7-0.9-10.8-2-10.8-8.5
			c0-4.6,4-8.6,11.2-8.6c4.6,0,8.3,1.6,11,3.7l-2.8,4.9c-1.6-1.8-4.8-3.2-8.1-3.2c-2.6,0-4.3,1-4.3,2.5c0,1.7,2.2,2.3,5.2,2.9
			c4.7,0.9,11,2.1,11,8.9c0,5-4.2,8.8-11.8,8.8c-4.8,0-9.3-1.6-12.2-4.2L717.8,417.3z"/>
		<path class="st2" d="M774.9,423c-1.9,2.2-5.1,3.5-8.7,3.5c-4.4,0-9.5-2.9-9.5-9.1c0-6.4,5.1-8.7,9.5-8.7c3.6,0,6.8,1.1,8.7,3.3
			v-3.8c0-2.8-2.4-4.6-6-4.6c-2.9,0-5.7,1.1-8,3.2l-2.7-4.8c3.3-2.9,7.6-4.3,11.9-4.3c6.2,0,11.9,2.5,11.9,10.4v17.7h-7.2V423z
			 M774.9,415.9c-1.2-1.6-3.5-2.4-5.8-2.4c-2.8,0-5.1,1.5-5.1,4.1c0,2.5,2.3,4,5.1,4c2.3,0,4.6-0.8,5.8-2.4V415.9z"/>
		<path class="st2" d="M789.3,436.3v-37.7h7.2v3.5c2.1-2.7,5.1-4.1,8.4-4.1c7,0,12.1,5.2,12.1,14.3s-5.1,14.4-12.1,14.4
			c-3.2,0-6.2-1.4-8.4-4.2v13.9H789.3z M802.6,404.2c-2.3,0-5,1.4-6.2,3.1v9.7c1.2,1.7,3.8,3.1,6.2,3.1c4.1,0,6.9-3.2,6.9-8
			C809.5,407.5,806.7,404.2,802.6,404.2z"/>
		<path class="st2" d="M822.4,436.3v-37.7h7.2v3.5c2.1-2.7,5.1-4.1,8.4-4.1c7,0,12.1,5.2,12.1,14.3s-5.1,14.4-12.1,14.4
			c-3.2,0-6.2-1.4-8.4-4.2v13.9H822.4z M835.7,404.2c-2.3,0-5,1.4-6.2,3.1v9.7c1.2,1.7,3.8,3.1,6.2,3.1c4.1,0,6.9-3.2,6.9-8
			C842.6,407.5,839.8,404.2,835.7,404.2z"/>
		<path class="st2" d="M465.7,483.1v-14.3h-4.5v-6.3h4.5v-7.5h7.2v7.5h5.5v6.3h-5.5v12.3c0,1.7,0.9,3,2.5,3c1.1,0,2.1-0.4,2.5-0.8
			l1.5,5.4c-1.1,1-3,1.8-6,1.8C468.4,490.5,465.7,487.9,465.7,483.1z"/>
		<path class="st2" d="M481.6,476.2c0-7.8,5.4-14.3,14.4-14.3c9.1,0,14.5,6.6,14.5,14.3c0,7.8-5.4,14.4-14.5,14.4
			C487.1,490.5,481.6,484,481.6,476.2z M503.1,476.2c0-4.2-2.5-7.9-7-7.9s-7,3.7-7,7.9c0,4.3,2.5,8,7,8S503.1,480.5,503.1,476.2z"/>
		<path class="st2" d="M530.4,462.5h7.2v3.7c1.9-2.4,5.3-4.4,8.7-4.4v7c-0.5-0.1-1.2-0.2-2-0.2c-2.4,0-5.5,1.3-6.7,3.1v18h-7.2
			V462.5z"/>
		<path class="st2" d="M567.1,487c-1.9,2.2-5.1,3.5-8.7,3.5c-4.4,0-9.5-2.9-9.5-9.1c0-6.4,5.1-8.7,9.5-8.7c3.6,0,6.8,1.1,8.7,3.3
			v-3.8c0-2.8-2.4-4.6-6-4.6c-2.9,0-5.7,1.1-8,3.2l-2.7-4.8c3.3-2.9,7.6-4.3,11.9-4.3c6.2,0,11.9,2.5,11.9,10.4v17.7h-7.2V487z
			 M567.1,479.9c-1.2-1.6-3.5-2.4-5.8-2.4c-2.8,0-5.1,1.5-5.1,4.1c0,2.5,2.3,4,5.1,4c2.3,0,4.6-0.8,5.8-2.4V479.9z"/>
		<path class="st2" d="M582.9,483.1v-14.3h-4.5v-6.3h4.5v-7.5h7.2v7.5h5.5v6.3h-5.5v12.3c0,1.7,0.9,3,2.5,3c1.1,0,2.1-0.4,2.5-0.8
			l1.5,5.4c-1.1,1-3,1.8-6,1.8C585.6,490.5,582.9,487.9,582.9,483.1z"/>
		<path class="st2" d="M613,461.8c8.1,0,13.7,6.1,13.7,15v1.6h-20.3c0.5,3.5,3.2,6.3,7.9,6.3c2.5,0,5.5-1,7.3-2.7l3.2,4.6
			c-2.8,2.5-7,3.8-11.3,3.8c-8.3,0-14.6-5.6-14.6-14.4C598.8,468.2,604.6,461.8,613,461.8z M606.2,473.6h13.5
			c-0.2-2.6-2-6.1-6.7-6.1C608.5,467.6,606.6,470.9,606.2,473.6z"/>
		<path class="st2" d="M647.1,481.3c2,1.9,6.1,3.7,9.4,3.7c3.1,0,4.6-1.1,4.6-2.8c0-1.9-2.4-2.6-5.5-3.2c-4.7-0.9-10.8-2-10.8-8.5
			c0-4.6,4-8.6,11.2-8.6c4.6,0,8.3,1.6,11,3.7l-2.8,4.9c-1.6-1.8-4.8-3.2-8.1-3.2c-2.6,0-4.3,1-4.3,2.5c0,1.7,2.2,2.3,5.2,2.9
			c4.7,0.9,11,2.1,11,8.9c0,5-4.2,8.8-11.8,8.8c-4.8,0-9.3-1.6-12.2-4.2L647.1,481.3z"/>
		<path class="st2" d="M685.7,461.8c8.1,0,13.7,6.1,13.7,15v1.6h-20.3c0.5,3.5,3.2,6.3,7.9,6.3c2.5,0,5.5-1,7.3-2.7l3.2,4.6
			c-2.8,2.5-7,3.8-11.3,3.8c-8.3,0-14.6-5.6-14.6-14.4C671.6,468.2,677.4,461.8,685.7,461.8z M679,473.6h13.5
			c-0.2-2.6-2-6.1-6.7-6.1C681.2,467.6,679.3,470.9,679,473.6z"/>
		<path class="st2" d="M705.4,481.3c2,1.9,6.1,3.7,9.4,3.7c3.1,0,4.6-1.1,4.6-2.8c0-1.9-2.4-2.6-5.5-3.2c-4.7-0.9-10.8-2-10.8-8.5
			c0-4.6,4-8.6,11.2-8.6c4.6,0,8.3,1.6,11,3.7l-2.8,4.9c-1.6-1.8-4.8-3.2-8.1-3.2c-2.6,0-4.3,1-4.3,2.5c0,1.7,2.2,2.3,5.2,2.9
			c4.7,0.9,11,2.1,11,8.9c0,5-4.2,8.8-11.8,8.8c-4.8,0-9.3-1.6-12.2-4.2L705.4,481.3z"/>
		<path class="st2" d="M732.3,481.3c2,1.9,6.1,3.7,9.4,3.7c3.1,0,4.6-1.1,4.6-2.8c0-1.9-2.4-2.6-5.5-3.2c-4.7-0.9-10.8-2-10.8-8.5
			c0-4.6,4-8.6,11.2-8.6c4.6,0,8.3,1.6,11,3.7l-2.8,4.9c-1.6-1.8-4.8-3.2-8.1-3.2c-2.6,0-4.3,1-4.3,2.5c0,1.7,2.2,2.3,5.2,2.9
			c4.7,0.9,11,2.1,11,8.9c0,5-4.2,8.8-11.8,8.8c-4.8,0-9.3-1.6-12.2-4.2L732.3,481.3z"/>
		<path class="st2" d="M757.9,454.7c0-2.4,2-4.3,4.3-4.3c2.4,0,4.3,1.9,4.3,4.3c0,2.4-1.9,4.3-4.3,4.3
			C759.8,459,757.9,457.1,757.9,454.7z M758.6,462.5h7.2v27.3h-7.2V462.5z"/>
		<path class="st2" d="M771.2,476.2c0-7.8,5.4-14.3,14.4-14.3c9.1,0,14.5,6.6,14.5,14.3c0,7.8-5.4,14.4-14.5,14.4
			C776.6,490.5,771.2,484,771.2,476.2z M792.6,476.2c0-4.2-2.5-7.9-7-7.9s-7,3.7-7,7.9c0,4.3,2.5,8,7,8S792.6,480.5,792.6,476.2z"/>
		<path class="st2" d="M823.8,473.3c0-3.8-2-5.1-5-5.1c-2.8,0-5,1.6-6.2,3.2v18.4h-7.2v-27.3h7.2v3.6c1.8-2.1,5.1-4.2,9.6-4.2
			c6,0,8.9,3.4,8.9,8.7v19.3h-7.2V473.3z"/>
		<path class="st2" d="M838.9,481.3c2,1.9,6.1,3.7,9.4,3.7c3.1,0,4.6-1.1,4.6-2.8c0-1.9-2.4-2.6-5.5-3.2c-4.7-0.9-10.8-2-10.8-8.5
			c0-4.6,4-8.6,11.2-8.6c4.6,0,8.3,1.6,11,3.7l-2.8,4.9c-1.6-1.8-4.8-3.2-8.1-3.2c-2.6,0-4.3,1-4.3,2.5c0,1.7,2.2,2.3,5.2,2.9
			c4.7,0.9,11,2.1,11,8.9c0,5-4.2,8.8-11.8,8.8c-4.8,0-9.3-1.6-12.2-4.2L838.9,481.3z"/>
		<path class="st2" d="M868.8,481.3c2.5,0,4.6,2.1,4.6,4.6c0,2.5-2.1,4.6-4.6,4.6s-4.6-2.1-4.6-4.6
			C864.2,483.4,866.3,481.3,868.8,481.3z"/>
	</g>
	<g>
		<path class="st2" d="M313.8,244.6c-1.6-1.1-2-3.3-0.8-4.9l0,0c0,0,0,0,0,0l0,0c1.1-1.6,3.3-2,4.9-0.8l0,0c1.6,1.1,2,3.3,0.8,4.9
			l0,0c-0.7,1-1.8,1.5-2.9,1.5l0,0C315.1,245.3,314.4,245,313.8,244.6z M321.5,234.1c-1.5-1.2-1.7-3.5-0.4-4.9l0,0
			c1.2-1.5,3.4-1.7,4.9-0.4l0,0c1.5,1.2,1.7,3.4,0.4,4.9v0c-0.7,0.8-1.7,1.3-2.7,1.3l0,0C323,234.9,322.2,234.7,321.5,234.1z
			 M330,224.3c-1.4-1.4-1.4-3.6,0-4.9l0,0c1.4-1.4,3.6-1.4,4.9,0l0,0c1.4,1.4,1.4,3.6,0,4.9l0,0c-0.7,0.7-1.6,1-2.5,1l0,0
			C331.6,225.3,330.7,225,330,224.3z M339.3,215.2c-1.3-1.5-1.1-3.7,0.4-4.9l0,0c1.5-1.3,3.7-1.1,4.9,0.4l0,0
			c1.3,1.5,1.1,3.7-0.4,4.9l0,0c-0.7,0.6-1.5,0.9-2.3,0.9l0,0C341,216.4,340,216,339.3,215.2z M349.3,206.9
			c-1.1-1.6-0.8-3.8,0.8-4.9l0,0c1.6-1.1,3.8-0.8,4.9,0.8l0,0c1.1,1.6,0.8,3.8-0.8,4.9l0,0c-0.6,0.5-1.3,0.7-2,0.7l0,0
			C351.1,208.4,350,207.9,349.3,206.9z M360,199.5c-1-1.7-0.5-3.8,1.2-4.8l0,0c1.7-1,3.8-0.5,4.8,1.2l0,0c1,1.7,0.5,3.8-1.2,4.8l0,0
			c-0.6,0.3-1.2,0.5-1.8,0.5l0,0C361.8,201.2,360.7,200.6,360,199.5z M371.3,193.1c-0.9-1.7-0.1-3.8,1.6-4.7l0,0
			c1.7-0.8,3.8-0.1,4.7,1.6l0,0c0.9,1.7,0.1,3.8-1.6,4.7l0,0c-0.5,0.2-1,0.3-1.5,0.3l0,0C373.2,195,371.9,194.3,371.3,193.1z
			 M383.1,187.6c-0.7-1.8,0.2-3.8,2-4.5l0,0c1.8-0.7,3.8,0.2,4.5,2l0,0c0.7,1.8-0.2,3.8-2,4.5l0,0c-0.4,0.2-0.8,0.2-1.3,0.2l0,0
			C385,189.9,383.6,189,383.1,187.6z M395.3,183.2c-0.5-1.8,0.5-3.8,2.4-4.3l0,0l0,0l0,0c1.9-0.5,3.8,0.5,4.3,2.4l0,0
			c0.5,1.9-0.5,3.8-2.4,4.3l0,0c-0.3,0.1-0.6,0.1-1,0.1l0,0C397.2,185.8,395.8,184.8,395.3,183.2z M487.7,185.5
			c-1.9-0.5-3-2.4-2.5-4.3l0,0c0.5-1.9,2.4-3,4.3-2.5l0,0c1.9,0.5,3,2.4,2.5,4.3l0,0c-0.4,1.6-1.8,2.6-3.4,2.6l0,0
			C488.3,185.6,488,185.6,487.7,185.5z M475.3,182.7c-1.9-0.4-3.1-2.2-2.8-4.1l0,0c0.4-1.9,2.2-3.1,4.1-2.8l0,0
			c1.9,0.4,3.1,2.2,2.8,4.1l0,0c-0.3,1.7-1.8,2.9-3.4,2.9l0,0C475.8,182.7,475.5,182.7,475.3,182.7z M407.9,179.9
			c-0.4-1.9,0.9-3.7,2.8-4.1l0,0c1.9-0.4,3.7,0.9,4.1,2.8l0,0c0.4,1.9-0.9,3.7-2.8,4.1l0,0c-0.2,0-0.5,0.1-0.7,0.1l0,0
			C409.7,182.7,408.2,181.5,407.9,179.9z M462.7,180.8c-1.9-0.2-3.3-2-3.1-3.9l0,0c0.2-1.9,2-3.3,3.9-3.1l0,0c1.9,0.2,3.3,2,3.1,3.9
			l0,0c-0.2,1.8-1.7,3.1-3.5,3.1l0,0C463,180.8,462.8,180.8,462.7,180.8z M420.7,177.6c-0.2-1.9,1.2-3.6,3.1-3.9l0,0
			c1.9-0.2,3.7,1.2,3.9,3.1l0,0c0.2,1.9-1.2,3.7-3.1,3.9l0,0c-0.1,0-0.3,0-0.4,0l0,0C422.4,180.7,420.9,179.4,420.7,177.6z
			 M450,179.8c-1.9-0.1-3.4-1.7-3.4-3.6l0,0c0.1-1.9,1.7-3.4,3.6-3.4l0,0c1.9,0.1,3.4,1.7,3.4,3.6l0,0c-0.1,1.9-1.6,3.4-3.5,3.4l0,0
			C450.1,179.8,450.1,179.8,450,179.8z M433.6,176.4c-0.1-1.9,1.5-3.5,3.4-3.6l0,0c1.9-0.1,3.6,1.4,3.6,3.4l0,0
			c0.1,1.9-1.4,3.5-3.4,3.6l0,0c0,0-0.1,0-0.1,0l0,0C435.3,179.8,433.7,178.3,433.6,176.4z"/>
	</g>
</g>
</svg>
