<?xml version="1.0" encoding="utf-8"?>
<!-- Generator: Adobe Illustrator 21.0.0, SVG Export Plug-In . SVG Version: 6.00 Build 0)  -->
<!DOCTYPE svg PUBLIC "-//W3C//DTD SVG 1.1//EN" "http://www.w3.org/Graphics/SVG/1.1/DTD/svg11.dtd">
<svg version="1.1" id="Layer_1" xmlns="http://www.w3.org/2000/svg" xmlns:xlink="http://www.w3.org/1999/xlink" x="0px" y="0px"
	 viewBox="0 0 1118.8 516" style="enable-background:new 0 0 1118.8 516;" xml:space="preserve">
<style type="text/css">
	.st0{fill:#DC7676;}
	.st1{fill:#F8E2D2;}
	.st2{fill:#FBAE24;}
	.st3{fill:#F9E3D2;}
	.st4{fill:#F79029;}
	.st5{fill:#FFEFD5;}
	.st6{fill:#FBAE25;}
	.st7{fill:#EEBC7F;}
	.st8{fill:#E0845F;}
</style>
<g>
	<g>
		<path class="st0" d="M96.3,162.7c-7.7,9.7-8.6,21.7-9,26c-1,12.6,2.7,22,4.6,26.8c2,5,6.9,15.3,17.3,24.6
			c6.4,5.6,13.3,11.8,23.3,13c4.5,0.5,6.9-0.2,30.8-9.1c14.9-5.6,22.4-8.4,26.1-10c15.5-6.6,14.5-7.3,27.7-12.6
			c10.9-4.4,13.4-4.5,18-8.1c2.1-1.7,9.8-7.9,12.8-18.7c2-7.4,0.7-13-1.9-24.2c-2.7-11.7-4.8-20.7-12.2-29.8
			c-2.7-3.4-9-11.1-19.5-14.8c-6.3-2.2-13.8-2.9-32.5,2c-20.1,5.3-23.2,9.1-47,17.8C109.6,154.7,103.3,154,96.3,162.7z"/>
		<g>
			
				<ellipse transform="matrix(0.9336 -0.3582 0.3582 0.9336 -98.0936 74.8022)" class="st0" cx="152.8" cy="302.2" rx="14.4" ry="14.4"/>
			<path class="st0" d="M173.4,312.7l-28.8,11.1c-4.3,1.6-6.4,6.5-4.8,10.8l14.8,38.5c1.6,4.3,6.5,6.4,10.8,4.8l10.5,27.3
				c1.9,4.9,7.4,7.4,12.3,5.5l11-4.2c4.9-1.9,7.4-7.4,5.5-12.3l-10.5-27.3c4.3-1.6,6.4-6.5,4.8-10.8l-14.8-38.5
				C182.5,313.2,177.7,311.1,173.4,312.7z"/>
		</g>
		<g>
			<path class="st1" d="M182.5,208.3c-0.9,0.3-1.5,0.9-1.8,1.6c-0.1,0.1-0.1,0.2-0.2,0.3c-0.6,1-0.6,2.5,0,3.5
				c1.1,1.8,2.4,2.6,4.1,2.2c0.4-0.1,0.7-0.2,1-0.3c0.8-0.3,1.4-0.8,1.9-1.6c0.4-0.6,0.7-1.4,0.8-2.1c0.1-1.5-1.1-2.9-2.4-3.6
				C184.8,207.9,183.6,207.9,182.5,208.3z M184.4,213.6c-0.4,0.1-0.9,0.1-1.1,0c-1.2-0.5-1.6-2.3-0.3-3c0.7-0.3,1.7-0.3,2.2,0.3
				C186,211.8,185.5,213.4,184.4,213.6z"/>
			<path class="st1" d="M192.5,150.4c2.1-0.8,2.5-3,1.8-5c-0.7-1.9-2.6-3.3-4.6-2.5c-2.1,0.8-2.5,3-1.8,4.9
				C188.7,149.9,190.5,151.2,192.5,150.4z"/>
			<path class="st1" d="M162,187.3c0.8,2,2.6,3.3,4.6,2.5c2.1-0.8,2.5-3,1.8-5c-0.7-1.9-2.6-3.3-4.6-2.5
				C161.8,183.2,161.3,185.4,162,187.3z"/>
			<path class="st1" d="M133.4,199.7c-0.9-0.5-2-0.6-3.1-0.2c-1.4,0.5-2.1,1.7-1.6,3c0.5,1.2,1.8,1.7,3.2,1.1
				c1.1-0.4,1.9-1.2,2.2-2.2L133.4,199.7z"/>
			<path class="st1" d="M128.3,218c-3.9,1.5-7.5,5.5-8.6,9.5c-1.3,4.7,0.4,10.7,4.1,14.4c3.3,3.3,9.9,4.6,14.7,2.7
				c0.9-0.3,1.6-0.8,2.3-1.3c5.5-4.1,7.8-11.5,5.3-17.1c-1.4-3.3-3.9-6.2-6.2-7.4C136.4,217,132,216.6,128.3,218z M122.2,233.2
				c-0.4-1.1-0.1-2.4,0.9-3.1c0.7-0.5,1.6-0.1,2.4-0.2c1.1-0.2,0.6-1.3,1.1-2.1c0.9-1.4,3.2-1.6,3.9,0.1c0.5,1.2,0.2,2.4-0.1,3.6
				c-0.1,0.3-0.1,0.6-0.1,0.9c-0.1,0.9,0,1.8-0.5,2.6c-0.4,0.6-0.8,0.5-1.4,0.4c-1.1-0.2-2.1-0.4-3.2-0.6
				C124.1,234.6,122.7,234.4,122.2,233.2z M141.8,236.7c-0.4,1.3-1.2,2.6-2.4,3.5c-0.7,0.5-1.5,1-2.3,1.3c-0.8,0.3-1.6,0.6-2.5,0.6
				c-1.2,0-2.3-0.2-3.3-0.7c-0.8-0.4-1.5-0.9-2-1.6c-0.2-0.2-0.5-0.6-0.1-0.9c0.2-0.2,0.8-0.1,1.1-0.2c0.8-0.1,1.7-0.1,2.5-0.4
				c0.8-0.3,1.6-0.5,2.4-0.8c0.9-0.3,1.8-0.6,2.6-1c0.7-0.4,1.5-0.6,2.1-1.1c0.5-0.4,1.3-1.6,1.8-0.8
				C142.1,235.2,142,236,141.8,236.7z M142.7,224.5c0.6,1.4,0,2.8-0.9,3.9c-0.8,1.1-1.3,3.1-2.9,3.3c-0.9,0.1-2-0.9-2.6-1.5
				c-1.1-1-2.1-2.1-2.6-3.5c-0.4-1.2,0.9-2.6,1.9-2.9c0.7-0.2,1.1,0,1.5,0.5c0.5,0.6,1,1.1,1.7,0.4c0.3-0.4,0.3-0.8,0.8-1
				C140.9,223.1,142.1,223.2,142.7,224.5z"/>
			<path class="st1" d="M114.9,171.5c-2.1,0.8-2.4,2.8-2,4.3l6.3-2.4C118.7,172.1,117.1,170.7,114.9,171.5z"/>
			<path class="st1" d="M173.6,212.9c-0.1,0-0.2-0.1-0.4-0.1c-0.7-0.3-1.6-0.3-2.5,0c-1.1,0.4-2,1.3-2.4,2.3
				c-0.5,1.4-0.5,3.2,0.6,4.2c0.5,0.5,1.2,0.9,2,1.1c0.9,0.2,1.6,0.2,2.5-0.1l0,0c0.3-0.1,0.6-0.3,0.9-0.4c1.5-0.8,2-2.3,1.5-4.4
				C175.7,214.4,174.7,213.3,173.6,212.9z M173.7,217.2c-0.1,0.3-0.5,0.6-0.8,0.8c-1.1,0.6-2.4-0.3-2.4-1.5c0-0.8,0.7-1.5,1.4-1.7
				C173.3,214.4,174.2,216.1,173.7,217.2z"/>
			<path class="st1" d="M172.7,201c-3.9,1.5-7.5,5.5-8.6,9.5c-1.3,4.7,0.4,10.7,4.1,14.4c3.3,3.3,9.9,4.6,14.7,2.7
				c0.9-0.3,1.6-0.8,2.3-1.3c5.5-4.1,7.8-11.5,5.3-17.1c-1.4-3.3-3.9-6.2-6.2-7.4C180.7,199.9,176.3,199.6,172.7,201z M177.2,205.2
				c-0.1-0.6,0.3-1,0.7-1.3c0.7-0.5,1.6-0.9,2.6-1c0.7-0.1,1.4,0,2,0.2c0.3,0.1,0.8,0.2,1,0.4c0.4,0.4,0.1,0.8-0.4,0.9
				c-0.6,0.1-1.1-0.3-1.7-0.1c-1.1,0.3-2.2,0.4-3.2,1.2C177.7,205.7,177.3,205.8,177.2,205.2z M166.1,210.1c0-0.3,0.3-0.6,0.5-0.9
				c0.3-0.6,0.7-1.1,1.3-1.5c0.8-0.6,1.7-0.9,2.6-1c0.5,0,1,0,1.4,0.5c0.3,0.5-0.1,0.8-0.6,0.8c-1.2,0.1-2.1,0.7-3.2,1.3
				c-0.5,0.3-0.7,0.9-1.2,1.2C166.6,210.8,166.1,210.7,166.1,210.1z M173.8,221.2L173.8,221.2c-1,0.4-2,0.5-3.1,0.2
				c-0.9-0.2-1.7-0.7-2.4-1.3c-1.5-1.4-1.5-3.7-0.9-5.3c0.5-1.3,1.6-2.4,3-2.9c1.1-0.4,2.2-0.4,3.2,0c0.1,0,0.2,0.1,0.3,0.1
				c1.4,0.5,2.7,1.9,3,3.3c0.5,2.5-0.2,4.4-2,5.4C174.5,220.9,174.1,221.1,173.8,221.2z M183.6,222.2l-4.6,1.8c-0.4,0.1-0.8,0-1-0.4
				c-0.1-0.4,0-0.8,0.4-1l4.6-1.8c0.4-0.1,0.8,0,1,0.4C184.2,221.6,184,222.1,183.6,222.2z M189.2,212.1c-0.1,0.9-0.4,1.8-0.9,2.6
				c-0.6,0.9-1.4,1.5-2.4,1.9c-0.3,0.1-0.7,0.2-1.1,0.3c-2,0.5-3.9-0.5-5.1-2.7c-0.7-1.2-0.7-3.1,0-4.4c0.1-0.1,0.1-0.2,0.1-0.3
				c0.4-1,1.3-1.7,2.4-2.1c1.4-0.5,2.9-0.5,4.1,0.2C187.8,208.4,189.3,210.1,189.2,212.1z"/>
			<path class="st1" d="M185,120.7l-76.1,29.2c-21.6,8.3-32.4,32.5-24.1,54.2l9.5,24.6c8.3,21.6,32.5,32.4,54.2,24.1l6.1-2.3
				l14.8,38.5l29.2-55.4l26-10c21.6-8.3,32.4-32.5,24.1-54.2l-9.5-24.6C230.9,123.2,206.6,112.4,185,120.7z M197.4,138.4l5.4,7
				l-0.4-8.9l1.7-0.6l5.6,6.9l-0.7-8.8l2-0.8l0.7,11.6l-2,0.8l-5.6-7l0.5,8.9l-2,0.8l-7.2-9.1L197.4,138.4z M217.3,161.9
				c-1.2,0.5-2,1.6-2.3,2.6l2.8,7.4l-1.9,0.7l-4-10.3l1.9-0.7l0.6,1.5c0.4-1.1,1.4-2.5,3-3.1c2.2-0.8,3.8-0.1,4.6,2.1l2.8,7.3
				l-1.9,0.7l-2.5-6.6C219.7,161.6,218.6,161.4,217.3,161.9z M207.3,162.2c-0.7,0.3-1.5-0.1-1.7-0.8c-0.3-0.7,0.1-1.4,0.8-1.7
				c0.7-0.3,1.4,0.1,1.7,0.7C208.3,161.2,208,161.9,207.3,162.2z M208.9,163.4l4,10.3l-1.9,0.7l-4-10.3L208.9,163.4z M170.5,184.1
				c1.1,3,0.1,6.2-3.1,7.4c-3.2,1.2-6.2-0.4-7.3-3.4c-1.1-3-0.1-6.2,3.1-7.4C166.4,179.5,169.3,181.1,170.5,184.1z M151.4,162.8
				c-1.9,0.3-4.1,0.6-5-1.6c-0.6-1.6,0.2-3.6,2.8-4.6c1.8-0.7,3.3-0.5,4.5,0l-0.3,1.7c-0.9-0.5-2.2-0.6-3.5-0.1
				c-1.3,0.5-1.9,1.3-1.6,2.2c0.3,0.9,1.6,0.8,3,0.6c2-0.3,4.3-0.6,5.2,1.8c0.7,1.8-0.2,3.7-3,4.8c-1.7,0.7-3.5,0.7-4.9,0l0.4-1.8
				c1,0.5,2.6,0.7,4,0.1c1.5-0.6,2-1.5,1.7-2.3C154.1,162.5,152.8,162.6,151.4,162.8z M114.3,170c3.1-1.2,6,0.5,7.2,3.7l0.2,0.5
				l-8.2,3.1c0.8,1.7,2.7,2.7,4.7,1.9c1.1-0.4,2.1-1.3,2.6-2.4l1.4,0.9c-0.6,1.4-1.9,2.5-3.6,3.1c-3.1,1.2-6.2-0.1-7.4-3.4
				C110.1,174.4,111.3,171.1,114.3,170z M131.6,205.2c-1.7,0.7-4,0.2-4.9-2c-0.9-2.4,0.6-4.1,2.3-4.8c1.4-0.5,2.8-0.5,3.9,0.1
				l-0.7-1.7c-0.5-1.3-1.8-1.7-3.3-1.1c-1.2,0.5-2,1.3-2.6,2.6l-1.3-1c0.7-1.6,1.9-2.7,3.6-3.3c2.2-0.9,4.5-0.6,5.5,2l2.7,7
				l-1.9,0.7l-0.4-1.1C134,203.8,133,204.7,131.6,205.2z M122.7,200l2.8,7.3l-1.9,0.7l-2.6-6.7c-0.7-1.7-1.7-1.9-3.1-1.4
				c-1.2,0.5-2,1.6-2.3,2.6l2.8,7.4l-1.9,0.7l-5.5-14.3l1.9-0.7l2.1,5.4c0.4-1.1,1.4-2.5,3-3.1C120.3,197.1,121.8,197.8,122.7,200z
				 M97.8,172.1l2.1-0.8l4.8,12.4l6.5-2.5l0.7,1.9l-8.6,3.3L97.8,172.1z M104,206.4l0.5,8.9l-2,0.8l-7.2-9.1l2-0.8l5.4,7l-0.4-8.9
				l1.7-0.6l5.6,6.9l-0.7-8.8l2-0.8l0.7,11.6l-2,0.8L104,206.4z M141.5,244.2c-0.7,0.6-1.6,1-2.6,1.4c-5.2,2-12.1,0.7-15.7-3
				c-3.9-4-5.7-10.3-4.4-15.4c1.2-4.4,4.9-8.6,9.2-10.2c3.9-1.5,8.6-1.2,12.5,0.9c2.5,1.3,5,4.4,6.6,7.9
				C149.7,232,147.4,239.9,141.5,244.2z M125.3,175.3l-2.4-6.4l-1.7,0.7l-0.6-1.7l1.7-0.7l-1.1-2.8l1.9-0.7l1.1,2.8l2.1-0.8l0.6,1.7
				l-2.1,0.8l2.3,5.9c0.3,0.7,0.8,1.1,1.5,0.9c0.4-0.2,0.8-0.5,0.9-0.8l1.1,1.3c-0.3,0.5-0.8,1-1.8,1.4
				C127.1,177.5,126,176.9,125.3,175.3z M142.9,200.9c-1.6,0.6-2.8,0-3.4-1.6L137,193l-1.7,0.7l-0.6-1.7l1.7-0.7l-1.1-2.8l1.9-0.7
				l1.1,2.8l2.1-0.8l0.6,1.7l-2.1,0.8l2.3,5.9c0.3,0.7,0.8,1.1,1.5,0.9c0.4-0.2,0.8-0.5,0.9-0.8l1.1,1.3
				C144.4,200,143.9,200.5,142.9,200.9z M136.7,170l-2.8-7.3l1.9-0.7l2.6,6.7c0.7,1.7,1.7,1.9,3,1.4c1.2-0.5,2-1.6,2.3-2.6l-2.8-7.4
				l1.9-0.7l4,10.3l-1.9,0.7l-0.5-1.4c-0.5,1.2-1.5,2.5-3,3.1C139.1,172.9,137.6,172.2,136.7,170z M153,201.4l-0.4-1.8
				c0.3,0,0.7-0.1,0.9-0.2c0.7-0.3,1.1-0.7,1.1-1.6l0.1-1.6l-8.3-8.8l2.1-0.8l6.3,6.9l0.1-9.4l2.1-0.8l-0.4,14.3
				c0,1.9-1,2.9-2.4,3.5C154,201.2,153.4,201.3,153,201.4z M185.8,227.2c-0.7,0.6-1.6,1-2.6,1.4c-5.2,2-12.1,0.7-15.7-3
				c-3.9-4-5.7-10.3-4.4-15.4c1.2-4.4,4.9-8.6,9.2-10.2c3.9-1.5,8.6-1.2,12.5,0.9c2.5,1.3,5,4.4,6.6,7.9
				C194.1,215,191.7,222.9,185.8,227.2z M183.8,184.9l-1.9,0.7l-0.5-1.4c-0.5,1.2-1.5,2.5-3,3.1c-2.2,0.8-3.7,0.2-4.6-2l-2.8-7.3
				l1.9-0.7l2.6,6.7c0.7,1.7,1.7,1.9,3,1.4c1.2-0.5,2-1.6,2.3-2.6l-2.8-7.4l1.9-0.7L183.8,184.9z M172.3,159.9l-5.2-3.1l-1,2.2
				l1.1,2.9l-1.9,0.7l-5.5-14.3l1.9-0.7l3.5,9.2l3-7.2l2.4-0.9l-2.7,6.4l6.7,3.9L172.3,159.9z M175.6,150.1l2.8,7.4l-1.9,0.7
				l-4-10.3l1.9-0.7l0.6,1.5c0.4-1.1,1.4-2.5,3-3.1c2.2-0.8,3.8-0.1,4.6,2.1l2.8,7.3l-1.9,0.7L181,149c-0.7-1.7-1.7-1.9-3.1-1.4
				C176.7,148,175.9,149.1,175.6,150.1z M195.3,180.8c-1.6,0.6-2.8,0-3.4-1.6l-2.4-6.4l-1.7,0.7l-0.6-1.7l1.7-0.7l-1.1-2.8l1.9-0.7
				l1.1,2.8l2.1-0.8l0.6,1.7l-2.1,0.8l2.3,5.9c0.3,0.7,0.8,1.1,1.5,0.9c0.4-0.2,0.8-0.5,0.9-0.8l1.1,1.3
				C196.8,179.9,196.3,180.4,195.3,180.8z M189,141.3c3.2-1.2,6.2,0.4,7.3,3.4c1.1,3,0.1,6.2-3.1,7.4c-3.2,1.2-6.2-0.4-7.3-3.4
				C184.7,145.7,185.8,142.5,189,141.3z M193.5,164.8l1.9-0.7l2.1,5.4c0.4-1.1,1.4-2.5,3-3.1c2.2-0.8,3.7-0.2,4.6,2l2.8,7.3
				l-1.9,0.7l-2.6-6.7c-0.7-1.7-1.7-1.9-3.1-1.4c-1.2,0.5-2,1.6-2.3,2.6l2.8,7.4l-1.9,0.7L193.5,164.8z M230.1,210.2
				c-0.7,0.6-1.6,1-2.6,1.4c-5.2,2-12.1,0.7-15.7-3c-3.9-4-5.7-10.3-4.4-15.4c1.2-4.4,4.9-8.6,9.2-10.2c3.9-1.5,8.6-1.2,12.5,0.9
				c2.5,1.3,5,4.4,6.6,7.9C238.4,198,236,205.9,230.1,210.2z M234.8,165.4l-5.2-3.1l-1,2.2l1.1,2.9l-1.9,0.7l-5.5-14.3l1.9-0.7
				l3.5,9.2l3-7.2l2.4-0.9l-2.7,6.4l6.7,3.9L234.8,165.4z"/>
			<path class="st1" d="M217,184c-3.9,1.5-7.5,5.5-8.6,9.5c-1.3,4.7,0.4,10.7,4.1,14.4c3.3,3.3,9.9,4.6,14.7,2.7
				c0.9-0.3,1.6-0.8,2.3-1.3c5.5-4.1,7.8-11.5,5.3-17.1c-1.4-3.3-3.9-6.2-6.2-7.4C225,182.9,220.7,182.6,217,184z M211.3,197.9
				c-0.5-0.4-0.2-0.8,0.2-1c1.1-0.5,1.7-1.4,2.5-2.3c0.4-0.4,0.3-1.1,0.7-1.5c0.3-0.3,0.8-0.4,1,0.1c0.1,0.3-0.1,0.7-0.1,1
				c-0.1,0.6-0.3,1.3-0.7,1.9c-0.5,0.8-1.3,1.5-2.1,1.8C212.3,198.1,211.8,198.2,211.3,197.9z M217.9,205.1c-0.9,0.6-1.2,0-0.8-0.9
				c0.5-1,1.4-1.7,1.4-2.9c0-0.8-0.8-1-1.4-1.2c-0.6-0.2-1.3-0.5-1.9-0.7c-0.5-0.2-2.5-0.7-1.1-1.3c0.5-0.2,1.2-0.2,1.8-0.1
				c0.1,0,0.2,0,0.3,0c1.4,0.3,2.9,0.4,4.3,0.8c2.3,0.6-0.4,3.4-1,4.4C219,203.9,218.6,204.6,217.9,205.1z M228.4,205.1
				c-0.3,0-0.7,0-1,0c-0.3,0-0.6,0-0.9,0c-0.7,0.1-1.5,0.4-2.1,0.9c-0.5,0.4-0.9,0.8-1.3,1.2c-0.2,0.2-0.4,0.6-0.6,0.7
				c-0.7,0.4-0.3-1.3-0.2-1.6c0.2-0.8,0.8-1.5,1.2-2.2c0.6-0.8,1.3-1.1,2.2-1.2c0.6,0,1.1,0.2,1.6,0.4c0.5,0.2,1,0.4,1.5,0.7
				c0.2,0.2,0.9,0.5,1,0.8C229.9,205.4,228.7,205.2,228.4,205.1z M229.2,193.9c-0.3,0.6-0.6,1.2-0.9,1.8c-0.3,0.6-0.8,1.3-0.2,1.9
				c0.8,0.8,2,0.8,3,1.2c0.9,0.4,1.1,1.1,0,1.2c-0.8,0.1-1.6-0.1-2.4-0.4c-1.2-0.3-5-0.6-3.7-2.6c0.8-1.2,1.8-2.3,2.6-3.5
				c0-0.1,0.1-0.1,0.2-0.2c0.4-0.5,0.9-1,1.4-1.2C230.6,191.8,229.4,193.5,229.2,193.9z M231,190.3c-0.1,0.6-0.6,0.8-1.1,1
				c-0.8,0.3-1.8,0.3-2.8,0.1c-0.7-0.2-1.3-0.5-1.8-0.9c-0.2-0.2-0.7-0.4-0.8-0.7c-0.2-0.5,0.2-0.8,0.7-0.7c0.6,0.1,0.9,0.6,1.5,0.7
				c1.2,0.1,2.3,0.4,3.4,0C230.6,189.6,231.1,189.7,231,190.3z"/>
		</g>
	</g>
	<path class="st0" d="M191.3,13.8L33.1,74.5c-19.5,7.5-29.3,29.4-21.8,49l138.1,360c7.5,19.5,29.4,29.3,49,21.8l158.2-60.7
		c19.5-7.5,29.3-29.4,21.8-49l-138.1-360C232.8,16.1,210.9,6.3,191.3,13.8z M101.8,80.8l42.8-16.4c3.9-1.5,8.2,0.4,9.7,4.3
		c1.5,3.9-0.4,8.2-4.3,9.7l-42.8,16.4c-3.9,1.5-8.2-0.4-9.7-4.3S97.9,82.3,101.8,80.8z M271.7,460c-11.8,4.5-25.1-1.4-29.6-13.2
		c-4.5-11.8,1.4-25.1,13.2-29.6c11.8-4.5,25.1,1.4,29.6,13.2C289.5,442.2,283.6,455.4,271.7,460z M350,364.1L149.5,441L39.4,154.1
		l200.5-76.9L350,364.1z"/>
</g>
<g>
	<path class="st0" d="M425.5,190.6h-10.3v23.6h-14v-65.8H432c13.7,0,22.1,9,22.1,21.2c0,11.6-7.3,17.8-14.4,19.5l14.8,25h-16.1
		L425.5,190.6z M430,160.4h-14.7v18.1H430c5.6,0,9.9-3.5,9.9-9.1C439.8,163.9,435.6,160.4,430,160.4z"/>
	<path class="st0" d="M483,165.3c14.2,0,23.9,10.6,23.9,26.2v2.8h-35.4c0.8,6,5.6,11,13.7,11c4.4,0,9.7-1.8,12.7-4.7l5.5,8.1
		c-4.8,4.4-12.2,6.6-19.6,6.6c-14.5,0-25.4-9.8-25.4-25C458.4,176.5,468.5,165.3,483,165.3z M471.3,185.8h23.5
		c-0.3-4.5-3.5-10.5-11.7-10.5C475.2,175.3,471.9,181.1,471.3,185.8z"/>
	<path class="st0" d="M575,184c0-4.4-2-7.6-7.1-7.6c-4.4,0-8.1,3-9.9,5.5v32.1h-12.6V184c0-4.4-2-7.6-7.1-7.6c-4.3,0-8,3-9.9,5.6v32
		h-12.5v-47.6h12.5v6.2c2-2.9,8.3-7.4,15.6-7.4c7,0,11.4,3.3,13.2,8.7c2.8-4.3,9.1-8.7,16.4-8.7c8.8,0,14,4.6,14,14.4v34.4H575V184z
		"/>
	<path class="st0" d="M621.5,165.3c14.2,0,23.9,10.6,23.9,26.2v2.8H610c0.8,6,5.6,11,13.7,11c4.4,0,9.7-1.8,12.7-4.7l5.5,8.1
		c-4.8,4.4-12.2,6.6-19.6,6.6c-14.5,0-25.4-9.8-25.4-25C596.9,176.5,607,165.3,621.5,165.3z M609.8,185.8h23.5
		c-0.3-4.5-3.5-10.5-11.7-10.5C613.7,175.3,610.4,181.1,609.8,185.8z"/>
	<path class="st0" d="M713.5,184c0-4.4-2-7.6-7.1-7.6c-4.4,0-8.1,3-9.9,5.5v32.1h-12.6V184c0-4.4-2-7.6-7.1-7.6c-4.3,0-8,3-9.9,5.6
		v32h-12.5v-47.6H667v6.2c2-2.9,8.3-7.4,15.6-7.4c7,0,11.4,3.3,13.2,8.7c2.8-4.3,9.1-8.7,16.4-8.7c8.8,0,14,4.6,14,14.4v34.4h-12.6
		V184z"/>
	<path class="st0" d="M738.4,148.4H751v24.3c3.7-4.8,9.1-7.3,14.7-7.3c12.1,0,21.1,9.5,21.1,25c0,15.9-9.1,24.9-21.1,24.9
		c-5.7,0-10.9-2.6-14.7-7.2v6h-12.5V148.4z M761.7,204.2c7.3,0,12.1-5.5,12.1-13.8s-4.8-13.9-12.1-13.9c-4,0-8.7,2.4-10.7,5.5v16.9
		C753,201.9,757.7,204.2,761.7,204.2z"/>
	<path class="st0" d="M817.8,165.3c14.2,0,23.9,10.6,23.9,26.2v2.8h-35.4c0.8,6,5.6,11,13.7,11c4.4,0,9.7-1.8,12.7-4.7l5.5,8.1
		c-4.8,4.4-12.2,6.6-19.6,6.6c-14.5,0-25.4-9.8-25.4-25C793.2,176.5,803.3,165.3,817.8,165.3z M806.1,185.8h23.5
		c-0.3-4.5-3.5-10.5-11.7-10.5C810,175.3,806.7,181.1,806.1,185.8z"/>
	<path class="st0" d="M850.7,166.5h12.5v6.5c3.4-4.2,9.3-7.6,15.2-7.6v12.2c-0.9-0.2-2.1-0.3-3.5-0.3c-4.1,0-9.7,2.3-11.7,5.3v31.4
		h-12.5V166.5z"/>
	<path class="st0" d="M913.9,202.3v-24.8H906v-10.9h7.9v-13h12.6v13h9.7v10.9h-9.7v21.5c0,3,1.6,5.2,4.3,5.2c1.9,0,3.6-0.7,4.3-1.4
		l2.7,9.5c-1.9,1.7-5.2,3.1-10.5,3.1C918.7,215.3,913.9,210.8,913.9,202.3z"/>
	<path class="st0" d="M941.7,190.3c0-13.5,9.5-24.9,25.1-24.9c15.8,0,25.2,11.4,25.2,24.9c0,13.6-9.5,25-25.2,25
		C951.2,215.3,941.7,203.9,941.7,190.3z M979.1,190.3c0-7.4-4.4-13.8-12.2-13.8c-7.8,0-12.1,6.4-12.1,13.8c0,7.5,4.3,13.9,12.1,13.9
		C974.7,204.2,979.1,197.8,979.1,190.3z"/>
	<path class="st0" d="M401,278h12.5v6.5c3.4-4.2,9.3-7.6,15.2-7.6v12.2c-0.9-0.2-2.1-0.3-3.5-0.3c-4.1,0-9.7,2.3-11.7,5.3v31.4H401
		V278z"/>
	<path class="st0" d="M465.1,320.7c-3.3,3.8-8.9,6.1-15.1,6.1c-7.6,0-16.6-5.1-16.6-15.8c0-11.1,9-15.2,16.6-15.2
		c6.3,0,11.9,2,15.1,5.8v-6.6c0-4.8-4.1-8-10.5-8c-5.1,0-9.9,1.9-13.9,5.6l-4.7-8.4c5.8-5.1,13.3-7.5,20.8-7.5
		c10.8,0,20.8,4.3,20.8,18v30.8h-12.5V320.7z M465.1,308.3c-2.1-2.8-6-4.1-10.1-4.1c-4.9,0-9,2.7-9,7.2c0,4.4,4,7,9,7
		c4,0,8-1.4,10.1-4.1V308.3z"/>
	<path class="st0" d="M492.5,313.8V289h-7.9V278h7.9v-13h12.6v13h9.7V289h-9.7v21.5c0,3,1.6,5.2,4.3,5.2c1.9,0,3.6-0.7,4.3-1.4
		l2.7,9.5c-1.9,1.7-5.2,3.1-10.5,3.1C497.2,326.8,492.5,322.3,492.5,313.8z"/>
	<path class="st0" d="M544.9,276.8c14.2,0,23.9,10.6,23.9,26.2v2.8h-35.4c0.8,6,5.6,11,13.7,11c4.4,0,9.7-1.8,12.7-4.7l5.5,8.1
		c-4.8,4.4-12.2,6.6-19.6,6.6c-14.5,0-25.4-9.8-25.4-25C520.3,288,530.4,276.8,544.9,276.8z M533.2,297.3h23.5
		c-0.3-4.5-3.5-10.5-11.7-10.5C537.1,286.8,533.8,292.6,533.2,297.3z"/>
	<path class="st0" d="M605.6,313.8V289h-7.9V278h7.9v-13h12.6v13h9.7V289h-9.7v21.5c0,3,1.6,5.2,4.3,5.2c1.9,0,3.6-0.7,4.3-1.4
		l2.7,9.5c-1.9,1.7-5.2,3.1-10.5,3.1C610.3,326.8,605.6,322.3,605.6,313.8z"/>
	<path class="st0" d="M668.6,296.6c0-6.6-3.5-8.7-8.9-8.7c-4.8,0-8.7,2.8-10.8,5.6v32h-12.5v-65.8h12.5v24.4c3.1-3.6,9-7.4,16.8-7.4
		c10.5,0,15.5,5.7,15.5,15v33.8h-12.5V296.6z"/>
	<path class="st0" d="M692.3,264.4c0-4.1,3.5-7.5,7.5-7.5c4.1,0,7.5,3.4,7.5,7.5s-3.4,7.5-7.5,7.5
		C695.8,271.9,692.3,268.5,692.3,264.4z M693.6,278h12.5v47.6h-12.5V278z"/>
	<path class="st0" d="M719.8,310.6c3.5,3.3,10.5,6.5,16.5,6.5c5.4,0,8-1.9,8-4.8c0-3.4-4.1-4.5-9.6-5.6c-8.2-1.6-18.7-3.5-18.7-14.9
		c0-8,7-15,19.5-15c8.1,0,14.5,2.8,19.1,6.5l-4.9,8.6c-2.9-3.1-8.3-5.5-14.1-5.5c-4.5,0-7.5,1.7-7.5,4.4c0,3,3.7,4,9.1,5.1
		c8.2,1.6,19.1,3.7,19.1,15.6c0,8.8-7.4,15.3-20.6,15.3c-8.3,0-16.3-2.8-21.3-7.4L719.8,310.6z"/>
	<path class="st0" d="M792.1,310.6c3.5,3.3,10.5,6.5,16.5,6.5c5.4,0,8-1.9,8-4.8c0-3.4-4.1-4.5-9.6-5.6c-8.2-1.6-18.7-3.5-18.7-14.9
		c0-8,7-15,19.5-15c8.1,0,14.5,2.8,19.1,6.5l-4.9,8.6c-2.9-3.1-8.3-5.5-14.1-5.5c-4.5,0-7.5,1.7-7.5,4.4c0,3,3.7,4,9.1,5.1
		c8.2,1.6,19.1,3.7,19.1,15.6c0,8.8-7.4,15.3-20.6,15.3c-8.3,0-16.3-2.8-21.3-7.4L792.1,310.6z"/>
	<path class="st0" d="M859.4,276.8c14.2,0,23.9,10.6,23.9,26.2v2.8h-35.4c0.8,6,5.6,11,13.7,11c4.4,0,9.7-1.8,12.7-4.7l5.5,8.1
		c-4.8,4.4-12.2,6.6-19.6,6.6c-14.5,0-25.4-9.8-25.4-25C834.8,288,844.9,276.8,859.4,276.8z M847.7,297.3h23.5
		c-0.3-4.5-3.5-10.5-11.7-10.5C851.6,286.8,848.3,292.6,847.7,297.3z"/>
	<path class="st0" d="M893.6,310.6c3.5,3.3,10.5,6.5,16.5,6.5c5.4,0,8-1.9,8-4.8c0-3.4-4.1-4.5-9.6-5.6c-8.2-1.6-18.7-3.5-18.7-14.9
		c0-8,7-15,19.5-15c8.1,0,14.5,2.8,19.1,6.5l-4.9,8.6c-2.9-3.1-8.3-5.5-14.1-5.5c-4.5,0-7.5,1.7-7.5,4.4c0,3,3.7,4,9.1,5.1
		c8.2,1.6,19.1,3.7,19.1,15.6c0,8.8-7.4,15.3-20.6,15.3c-8.3,0-16.3-2.8-21.3-7.4L893.6,310.6z"/>
	<path class="st0" d="M940.6,310.6c3.5,3.3,10.5,6.5,16.5,6.5c5.4,0,8-1.9,8-4.8c0-3.4-4.1-4.5-9.6-5.6c-8.2-1.6-18.7-3.5-18.7-14.9
		c0-8,7-15,19.5-15c8.1,0,14.5,2.8,19.1,6.5l-4.9,8.6c-2.9-3.1-8.3-5.5-14.1-5.5c-4.5,0-7.5,1.7-7.5,4.4c0,3,3.7,4,9.1,5.1
		c8.2,1.6,19.1,3.7,19.1,15.6c0,8.8-7.4,15.3-20.6,15.3c-8.3,0-16.3-2.8-21.3-7.4L940.6,310.6z"/>
	<path class="st0" d="M985.1,264.4c0-4.1,3.5-7.5,7.5-7.5c4.1,0,7.5,3.4,7.5,7.5s-3.4,7.5-7.5,7.5
		C988.5,271.9,985.1,268.5,985.1,264.4z M986.4,278h12.5v47.6h-12.5V278z"/>
	<path class="st0" d="M1008.3,301.8c0-13.5,9.5-24.9,25.1-24.9c15.8,0,25.2,11.4,25.2,24.9c0,13.6-9.5,25-25.2,25
		C1017.7,326.8,1008.3,315.4,1008.3,301.8z M1045.6,301.8c0-7.4-4.4-13.8-12.2-13.8c-7.8,0-12.1,6.4-12.1,13.8
		c0,7.5,4.3,13.9,12.1,13.9C1041.2,315.7,1045.6,309.3,1045.6,301.8z"/>
	<path class="st0" d="M1100,296.8c0-6.6-3.5-8.9-8.8-8.9c-4.9,0-8.8,2.8-10.8,5.6v32h-12.5V278h12.5v6.2c3.1-3.6,8.9-7.4,16.7-7.4
		c10.5,0,15.5,5.9,15.5,15.2v33.6H1100V296.8z"/>
</g>
<g>
	<path class="st2" d="M351.8,106.5c-0.1,4.9-0.5,7.8-3.8,11.7c-2.3,2.9-7.7,6.4-11.9,6.6c-1.9,2.7,1.5,4.8,1,7.6
		c1.1,3.1,4.1,8.9,4.3,12.6c1.9,2.9,2.8,6.8,3.7,10.2c-0.1,1.1-1.2,1.6-2.1,1.9c-1.5-1.3-2.7-3.3-2.9-5.3l-6.3-17
		c-2.6-6.7-4.1-12.7-6.5-19.9c-0.8-2.2-2.5-4.2-2.5-6.7c-1.9-1.8-1.1-4.6-3.2-6.2c-0.6-1.8,0.7-3.3,2.1-4.1c1.9-0.7,4-0.8,5.3-2.3
		c5.3-2,10.5-2,15.5-1.7c2.5,1,5,2.4,5.6,5.4C351.5,100.7,351.6,104.7,351.8,106.5z M345.4,99.3L345.4,99.3
		c-4.9-3.1-11.6-1.3-16.1,1.3c-0.6,0.9-2.9,1.4-1.5,2.9c0.7,1.3,1,2.2,1.2,3.9c0.2,0.7,0.5,2.1,1.1,3c1.4,3.6,2,7.5,4.1,10.2
		c3.7-0.6,9.6-1.7,11.4-5.4c2.6-5,3.5-9.3,0.8-14.5L345.4,99.3z"/>
	<path class="st2" d="M385.6,136.6c-2,1.6-10,5-12.4,5.3c-3-4.3-3.9-8.9-6-13.9c-1-3.4-2.4-6.6-3.8-10c-1.3-3.1-2.9-6.2-4-9.5
		c-1.6-4.7-3.5-9.7-5.5-14.5c-2-4.7-4-9.3-6.1-13.4c-0.3-1.4-1-3-1.5-4.4c-0.4-1.2-0.5-2.4,0.1-3.3c2.2-0.9,4.6-0.1,5.1,1.2
		c0.7,1.7-0.7,4.2,1.2,4.8c1.1,4.1,3.2,10.4,5.8,13.9c0.3,0.6,0,1.9,0,2.8c2,2.3,1.9,6,4.3,8c1.3,4,2.6,9.4,5.2,13
		c0.9,3.5,2.2,8.6,4.4,11.7c-0.7,2.8,2.6,4.1,2.7,7.1l1.7,0.8c4.2-0.8,4.5-2.9,8.5-3.7C386.7,134,387.4,135.3,385.6,136.6z"/>
	<path class="st2" d="M403.6,98.3c-0.4,0.4-0.9,0.3-1.2,0.5c-0.4,0.5-0.2,0.4-0.6,1.3c-6,1.5-11.6,5.6-17.2,8.1
		c-0.3,2,3.7,4.5,5.3,6.7c2.8,1.1,5.5,2.7,8.4,3.2c0.4,0,1.3-0.3,1.7-0.4c0.5,0,0.8,0.3,1.3,0.4c0.4,0,1.1-0.4,1.5-0.5
		c0.5-0.1,0.7,0.1,1.2,0c0.5-0.1,0.9-0.3,1.4-0.5c0.8,1,2.6,0,2.4,1.8c-0.6,1.4-2.4,1.2-2.7,2.9c-6.7,1.9-13.6-1.4-19.4-4.6
		c-1.6-1.8-3.6-3.1-4.5-5.3c-0.1-1.6-1.4-2.2-2.1-3.3c-0.8-3.9-1.6-8-1.2-11.8c0.3-3.2,1.1-6.3,3.2-9.2c1.8-2.2,4.9-4.2,8-4.9
		c2.3-0.5,5.1-0.3,6.9,1.3c0.8,1.3,3.1,1.8,3.8,3.1c0.3,0.4,0.4,1.1,0.3,1.9c0.3,0.2,0.6,0.4,0.8,0.8c0.4,0.3,0,0.6,0.2,0.9
		c0.1,0.2,1.1,0.4,1.2,0.7c0.8,1.7,0.5,3.7,2.5,4.6C404.4,96.6,404.1,97.7,403.6,98.3z M399.3,95.5c-1-1.7-2.1-6.7-5-7.5
		c-2.2-2.1-4.3-1.7-7.5,0c-4,2.4-4.4,6.3-4.7,10.2c0.2,1.2-0.2,3.8,0.7,4.9c0.3,0.3,0.4,0.9,0.9,0.9c3.4-2.8,6.2-3,9.8-5.6
		c0.9,0.7,3.3-2.1,3.6-2.2L399.3,95.5z"/>
	<path class="st2" d="M442.4,110.7c0.3,1.4,0.1,2.6-1.2,3.6c-1.9,0-2.4-1-2.7-2.2c-0.4-1.4-0.3-3.2-1.9-4.1
		c-2.4,2.8-5.2,5.9-8.8,7.1c-1.2,0.4-2.5,0.6-3.9,0.6c-3.6-1.4-7.4-2.2-9.1-5.4c-0.4-0.6-0.6-1.5-0.8-2.5c-0.8-5-0.9-10.4,2.8-14.6
		c0.8-0.8,1.7-1.5,2.8-1.9c3.3-1.5,7.6-1.2,10.9-0.2c0-4.8-3.3-9.6-5.1-13.8c-1.7-0.9-3.2-3-5.4-2.3c-3.4-0.4-4.9,2.6-7.4,4.1
		c-1.5,1.2-0.8,3.8-2,4.6c-0.4,0.3-1,0.3-1.9,0c-1.8-0.2-1.5-2-2-3c1.9-4.7,5.8-8.2,10.3-9.7c1.9-0.6,4-0.8,6-0.7
		c2.2,0.6,4.3,2.4,5.6,4.2c3.1,4,3.5,9.8,6.7,14.2c1.2,5.2,3.6,11.5,5.3,16.7l0.1,0C440.7,106.9,442,108.8,442.4,110.7z M432.3,96.4
		l-1.4-0.2c-1.9-1.9-4.5-2.1-6.9-1.2c-2,0.7-3.8,2.1-5,3.9c-1.8,3-0.7,7.4,0.1,10c1.9,1.4,5.7,2.1,8.4,1.4c2.8-0.6,5.1-3.7,5.5-6.1
		C435.9,103.5,432.5,98.9,432.3,96.4z"/>
	<path class="st2" d="M447.8,60.1c-2.1-0.1-0.9,2.1-1.6,3c-0.3,0.8-1.2,1.2-1.6,1.9c-0.3,0.5,0,1.2-0.3,1.9
		c-1.6,3.4-2.4,7.8-0.4,11.6c2.5,9.9,12.1,14,16.7,22.2c1.4,2.6,1.9,5.2,2.8,7.8c-0.8,1.6,0,3.2,0,4.9c0.1,1.3-0.8,2.5-1.2,3.8
		c-1.3,2.7-3.6,4.7-6.8,4.6c-0.9-0.7-2.8,0.5-3.3-1.2c-0.1-1.2,0.9-1.2,1.2-2.2c1.8-0.1,3.5-0.8,4.5-2.4c0.4-1.8,1-3.9,1.1-5.8
		c0.1-2-0.2-4.5-1.9-5.9c-0.7-1.9-1.9-3-3.2-4.8c-3.1-4-7.4-7.7-10.3-11.3c-1.3-2.4-3.2-4.3-4-6.7c-0.6-1.5-0.2-3.4-0.7-5.1
		c-2.6-5.8,1.1-11,2.7-16.3c1-1.2,2.4-3.8,4-4.9c1.2-0.8,2.5-0.9,3.7,0.8C449.3,57.7,448.2,58.4,447.8,60.1z"/>
	<path class="st2" d="M487.6,71.8c-0.4,0.4-0.9,0.3-1.2,0.5c-0.4,0.5-0.2,0.4-0.6,1.3c-6,1.5-11.6,5.6-17.2,8.1
		c-0.3,2,3.7,4.5,5.3,6.7c2.8,1.1,5.5,2.7,8.4,3.2c0.4,0,1.3-0.3,1.7-0.4c0.5,0,0.8,0.3,1.3,0.4c0.4,0,1.1-0.4,1.5-0.5
		c0.5-0.1,0.7,0.1,1.2,0c0.5-0.1,0.9-0.3,1.4-0.5c0.8,1,2.6,0,2.4,1.8c-0.6,1.4-2.4,1.2-2.7,2.9c-6.7,1.9-13.6-1.4-19.4-4.6
		c-1.6-1.8-3.6-3.1-4.5-5.3c-0.1-1.6-1.4-2.2-2.1-3.3c-0.8-3.9-1.6-8-1.2-11.8c0.3-3.2,1.1-6.3,3.2-9.2c1.8-2.2,4.9-4.2,8-4.9
		c2.3-0.5,5.1-0.3,6.9,1.3c0.8,1.3,3.1,1.8,3.8,3.1c0.3,0.4,0.4,1.1,0.3,1.9c0.3,0.2,0.6,0.4,0.8,0.8c0.4,0.3,0,0.6,0.2,0.9
		c0.2,0.2,1.1,0.4,1.2,0.7c0.8,1.7,0.5,3.7,2.5,4.6C488.4,70.1,488.1,71.2,487.6,71.8z M483.2,69c-1-1.7-2.1-6.7-5-7.5
		c-2.2-2.1-4.3-1.7-7.5,0c-4,2.4-4.4,6.3-4.7,10.2c0.2,1.2-0.2,3.8,0.7,4.9c0.3,0.3,0.4,0.9,0.9,0.9c3.4-2.8,6.2-3,9.8-5.6
		c0.9,0.7,3.3-2.1,3.6-2.2L483.2,69z"/>
</g>
<g>
	<path class="st2" d="M680,390.3c0.8,0.9-0.3,2.9-1.1,3.3c-6,1.1-11.2-0.8-17.4-0.1c-0.8,0.5-1.3,1.1-1.6,1.8
		c-0.8,1.8-0.4,3.6-1,5.7l0.3,0.4c-0.6,4.7-0.3,10.4,0.1,15.9c0.3,3.4,0.5,8.5,0.6,11.3c0.1,1.5,0.8,3.1,1,4.7
		c0.2,1.3-0.2,2.4-1.3,3.4c0,0.9,0.2,2.3-1.1,2.4c-1.5-0.5-1.9-1.7-2.1-3.1c-0.2-1.5-0.1-3.3-0.9-4.5c0.7-3.3-1-8.7,0-12.2
		c-0.6-6.7-0.3-16.7-0.6-23.8c0-1-1.3-1.1-2.1-1c-1.3,1.2-3.4-0.7-5.1,0.8c-2.7-1.6-6-0.2-8.8-0.3c-1.3-0.1-2.5-0.6-3.5-1.8
		c0.4-1.3,1.1-2.8,2.4-3.3c6.8,0.2,14.5,0.3,20.8-0.7c3.8-1.3,13.5,0.9,20.5,0.4L680,390.3L680,390.3z"/>
	<path class="st2" d="M711.6,445l-1.3,0.2c-2.4-1.2-1.5-4.9-2.2-7.4c-0.7-3.6-0.2-7.6-1.8-10.9c0.3-4.8,0.1-10.5-4.1-13.6
		c-1.7,0-2.5-1.3-4.4-1c-6,3.3-6,9.6-6.2,15.7c1.2,4,0.7,8.8,1.8,12.8c0.1,1.5-1.8,1.7-2.6,2.6c-4.4,0.1-2.1-5.1-3.3-7.8
		c0.7-2.9-1.3-5.4-1-8.4c-0.6-9.7-2-20.6-2.9-29.9c-0.3-2.7-0.9-14.8-1.1-17.8c0-0.5,0.1-4.7,0.1-5.4c0-0.5-0.3-0.5-0.4-1
		c-0.1-0.3,0.3-0.6,0.3-0.8c0-0.4-0.6-0.8-0.6-1.3c0.5-1.2,1.4-2.5,2.9-2.9c1.3-0.1,2.4,0.8,2.9,1.8c0.3,0.5-0.2,1,0.2,1.6
		c-0.3,1.1,0.5,2.4-0.5,3.5c0.2,0.5,0.4,4.7,0.6,5.4c0,0.3-0.3,0.7-0.3,1.1c0.1,0.6,0.3,7.9,0.3,8.4c-0.1,3.6,0.5,9.8,0.4,13.4
		c-0.1,2.4,1.6,4.6,1.2,7c0.6,0.4,0.2,1.3,1,1.8l5-4.7c4.7-0.3,9.6,0.7,11.7,5.1c3.3,3.3,4,8.6,3.4,13.3c1.2,2.6,0.8,6.4,0.3,9.2
		c1.9,2.2,1.6,5.3,2.1,8h0.1C712.4,443.4,713.1,444.9,711.6,445z"/>
	<path class="st2" d="M745.3,435.2c-0.2,1.4-0.7,2.6-2.3,3.2c-1.9-0.6-2.1-1.8-2-3c0.1-1.5,0.7-3.3-0.6-4.6c-3.3,2-7,4.2-10.9,4.3
		c-1.3,0-2.7-0.2-4-0.7c-3.1-2.5-6.6-4.4-7.3-8.2c-0.2-0.8-0.2-1.7,0-2.7c0.8-5.2,2.3-10.6,7.3-13.6c1-0.6,2.2-0.9,3.4-1
		c3.7-0.4,7.9,1.2,10.8,3.2c1.5-4.8-0.3-10.5-0.8-15.3c-1.4-1.4-2.3-3.9-4.6-3.9c-3.3-1.4-5.7,1-8.6,1.8c-1.8,0.8-2,3.5-3.4,3.9
		c-0.5,0.2-1.1,0-1.9-0.6c-1.7-0.8-0.8-2.4-1.1-3.6c3.4-4,8.3-6.3,13.3-6.4c2.1,0,4.2,0.4,6.1,1.2c2,1.3,3.5,3.7,4.3,5.9
		c1.8,4.9,0.3,10.8,2.2,16.1c-0.4,5.5,0,12.5,0,18.1h0.1C744.9,430.9,745.5,433.2,745.3,435.2z M739.8,417.9l-1.3-0.7
		c-1.3-2.5-3.8-3.4-6.5-3.4c-2.2,0.1-4.4,0.9-6.1,2.3c-2.8,2.4-3,7.1-3,9.9c1.4,1.9,5,3.9,7.9,4c3,0.3,6.2-2,7.4-4.3
		C741.2,426,739.2,420.4,739.8,417.9z"/>
	<path class="st2" d="M778.4,432c-1.7,0.3-3.1,1.5-5.2,1.1c-2.4-4.4-3.4-9.4-8.1-12.9c0-1.3-1.8-1.9-2.1-3.3c-2.2-1.9-4.3-5.5-7-6.5
		c-0.9,1.7,0.3,3.4,0.5,5c1.3,6.5,1.7,12.7,2.4,19c0.4,1.4,0,2.3-0.3,3.6c-0.9,0.8-1.8,2.3-3,1.1c-0.6,0-0.9-0.7-1.4-1.1
		c1.4-9.6-2.2-18.1-2.4-27.5c-1.6-0.9-0.2-2.3,0.1-3.4c1.3-0.4,0.1-1.9,0.9-2.6c4.7-3.2,6.5,3.1,9.6,5.1c1.7,3,5.4,5.8,6.9,9.1
		c1.8,1.4,2.3,4,4.7,4.6c1.5-2.6,0.3-5.1,1.1-7.9c0.2-5.1-1.8-9.4-1.2-14.7c0.4-1.1,1.7-1.4,2.7-1.8c4.9,0.9,0.8,6,2.5,9.2v17.9
		C779.4,427.8,780.2,430.6,778.4,432z"/>
	<path class="st2" d="M819.5,460.9c-1.4,0.7-2.2-0.9-2.9-1.3c-0.4-5.4-2.2-10.2-4.3-15c-1.3-4.8-4.5-7.2-5.4-12.2
		c-2.4-3.4-2.3-7.7-5.4-10.9c-3.4,1.8-5.7,5.4-6.8,8.8c-0.4,2.9,0.9,5.5,0.4,7.8c1.3,3.6,0,7.5,1.5,11.1c-0.1,1.3-0.7,2.4-1.5,3.6
		c-0.8,0.6-2.1,0.3-3.1,0.3c-1.2-2.8-0.8-6.5-0.5-9.2c-1.4-4.8,0.1-9.6-1.3-14.3l-0.3-12.9c-0.8-1.6-1.5-3.7-0.6-5.5
		c-0.8-9.5-2.5-13.1-2.3-22.6c-1.6-5.1,0.4-11.7-2.1-16.4c-0.1-2.3,1.3-4.3,3.3-5.3c3.4,1.8,2.3,7.2,2.4,10.7
		c0.5,2.3,0.5,5.3,0.3,7.4c1,4.9-0.9,5.4,1,10c-0.1,3.9,0.3,8.3,1.1,12.1c1.6,0.4,0.8,2.4,1.6,3.6c0.5,1.9-0.8,5.5,0.5,8.9
		c1.8-1.2,3.9-3.4,4.6-5.6c3.4-3.2,7.3-7.4,9.3-11.8c1.4-0.1,3-1.4,4.3,0.2c0.6,0.8,1,1.8,0.3,2.8c-0.9,1.1-2.7,1.9-2.3,3.5
		c-2.2,2.4-5.5,4.4-6.2,7.5c1.9,3.2,1.8,7.3,4.3,10.3c0.7,2.9,3.3,5.3,3.3,8.6c1.8,5.5,5.2,8.7,5.7,14.7c1.9,2.3,0.3,6,3.2,7.8v0.2
		C822.3,459.3,820.6,460.3,819.5,460.9z"/>
	<path class="st2" d="M873.8,407c-1.3,1.8-9,18.6-9.2,21.1c-1.8,0.9,0.1,4.2-2.9,4.6c-0.8,4.5-3.7,8-3.9,12.7
		c-0.4,1.3-8.1,19-8.7,19.6l-0.5,4.9c-1.3,0.8-2.1,1.4-2.9,1.5c-0.9,0.1-1.6-0.6-2.4-2.3c0.5-8.5,7.2-16.8,9.2-24.7
		c1.5-5.8,4.7-11.4,6.3-16.3c1.2-1.8-1.8-3.7-2.1-4.9c-1.6-2.3-4-6.1-5.1-8.5c-1.3-3-5.3-5.5-5.7-8.6c-0.2-1,0.1-2.1,0.9-3.2
		c1.1-0.8,2.3-1,3.9-0.7c1.4,2.7,1.7,5.8,3.6,7.5l6.7,11.8c1.5-0.8,1.6-3,2-3.9c2.4-4.9,6.1-11.3,7.3-17c0.5-1.8,1.6-3.9,4-4.5
		c1.3-0.4,2.7,0.4,3.4,1.2C878.2,400.8,874.2,402.8,873.8,407z"/>
	<path class="st2" d="M896.5,429.9c-6.9,0.8-10.6-5.3-13.5-10c-3.4-5.3-1.8-13,1.5-17.7c2.1-3.1,5.6-3.3,8.6-4.1
		c4.1-0.5,8.2,1.9,12.1,3.6c6.7,4.2,5.5,12.7,5.1,19.7C907.5,426.3,902.6,430.9,896.5,429.9z M893.5,402.5c-1.9,0.9-3.9,1.7-5.7,2.9
		c-1.6,2.3-1.3,5.3-1.8,7.9c0.6,3.9,2.3,7,5.5,9.9c1.4,0.4,2.9,2.1,4.3,1.5c3.4,0.7,6.8-0.9,9.1-4c2.5-2.5,1.2-7,1.1-10.2
		C902,407.2,899.3,401.8,893.5,402.5z"/>
	<path class="st2" d="M939.3,436.4c-0.5-0.8-0.6-1.5-0.6-2.2c0.1-1.6,0.8-3-0.8-4.4c0-0.9-0.1-3.2-0.9-3.7c-2.9,3.9-7,7-12.4,6.6
		c-0.7-0.8-1.3-0.9-1.7-0.8c-0.8,0.1-1.4,0.8-2.5-1c-0.9,0.1-1.3-0.4-1.3-1.1c-0.1-0.6-1.7-1.3-1.8-1.9c-0.1-0.8,0.5-1.4-0.5-1.7
		c-0.8-4.9,0.7-14.3,0.2-19.6c-0.1-1.6,1.8-1.7,2.6-2.6c1.9-0.1,2.1,2.2,2.2,3c-0.5,5.5-1.9,15.3,0.1,19.5c2.2,2.4,3.9,1.6,6.8,1.5
		c4.9-2.3,8.5-9.2,8.4-14.8c-0.2-1.8-1.4-3.4-0.5-5.1c0.8-0.5,1.6-1.1,2.7-1.3c0.8-0.1,1.7,0.3,2,1.3c0.1,3.8,1.4,6,0.4,9.6
		c0.7,1.7,0.3,4.4,0.4,5.8c-0.2,2.2,0.2,5.1,1,7.4c-1,1.8,0.3,2.3,0.5,3.6c0.1,0.5-0.1,1-0.6,1.8C941.9,437,940.8,437.2,939.3,436.4
		z"/>
	<path class="st2" d="M954.1,439.3c-1.8,0-3.4-0.5-4.7-2c-0.1-2.9,2.8-4.1,4.9-5.3c2,0.2,3.2,1.5,3.5,3.4
		C957.8,437.7,955.9,438.5,954.1,439.3z M958.7,386.3c-0.3,1,0.5,1.6,0.3,2.6c-0.8,4.8-2.7,10.2-2.6,15.3c0.1,6.6-0.7,13.5-1.1,20.2
		c-0.6,0.8-1.4,1.1-2.3,1l-1.3-1.9c0.8-8.9,1.1-18.5,0.8-27.5c0.9-5.5,1.8-12.1,1.9-17.9c0.9-1.9,4.6-3.9,5.3-0.8
		c-0.3,0.8-0.1,1.3-0.3,1.9c-0.2,0.6,0.5,1.2,0.3,1.8h0.1c-0.2,0.7-0.5,1.3-0.7,1.8c-0.2,0.6,0.8,1.2,0.7,1.7
		C959.7,385.2,958.9,385.7,958.7,386.3z"/>
</g>
<g id="XMLID_2_">
	<path id="XMLID_33_" class="st3" d="M1046.5,365.6c9.3-4.9,16.1-10.8,22.1-9c6.8,2,6.2,7,1.8,12.2c-3.7,4.5-2.6,17.6-1.5,23.6
		c1.5,8.4,2.2,9.5,9.2,16.9c4.4,4.6,9.2,12.6,11.4,27.5c1.4,9.5-1.3,19.7-9.4,31.5c-3.9,5.7-11.4,10-17.9,10.6
		c-9.7,0.9-19.9,0-29.8,0c-10.8,0-18.6-3.7-23.4-14.2c-5.8-12.6-9.1-26.5-3.5-40.6c5-12.7,6.8-13.4,11-19c2.7-3.6,6.3-8.2,6.3-12.8
		c-0.2-10.9-5.4-11.8,1.4-18C1030.4,368.9,1039.4,369.3,1046.5,365.6z"/>
	<path id="XMLID_32_" class="st3" d="M1022.9,402.2c0.9-5-10.3-11.5-14.8-12.8c-7.6-2.3-15.3,0.3-21.7,4.7c-5.8,4-8.5,10.5-8.4,17.3
		c0.1,7.4,6.5,12.7,12,16.8c5.8,4.4,12.1,8.2,18.1,12.3c1.9-2.8,2.1-6.6,1.8-9.8c-9.3-0.8-26.2-13.8-24-24.5
		c1.1-5.3,8.2-9.3,13.2-9.9c6.6-0.9,11.6,3,16.4,7.2c1.8,1.5,4.1,4.3,5.2,5.5L1022.9,402.2z"/>
	<path id="XMLID_31_" class="st0" d="M1067,400.1c0,0,5.2,11.5,8.4,16.5c3.7,5.8,6.2,11.2,7.3,17.9c2,12.4-2.8,30.4-14.5,37.3
		c-6,3.6-12.3,0.3-19.2,0c-7.4-0.4-10.1,0.2-17.2,1.4c-7.6,1.2-13.9-3.7-17.3-10.1c-3-5.7-3.8-8.9-4.7-15.4
		c-1.3-9.6,0.2-18.2,2.2-24c1.3-3.9,5.2-10.1,7.3-13.7c2.9-5.1,6.5-10.7,6.5-10.7c3.3-2.1,8.7-0.1,12.2,0.6c4.8,1,9.7,2.4,14.6,2.8
		C1054.3,402.9,1060.5,403.9,1067,400.1z"/>
	<g id="XMLID_20_">
		<path id="XMLID_30_" class="st4" d="M1023.4,438.8c1.2-0.8,2.4-1.5,3.7-2c1.3-0.5,2.7-0.8,4.1-0.9c1.4-0.1,2.8-0.1,4.2,0.1
			c1.4,0.2,2.7,0.6,4,1.2c1.3,0.6,2.4,1.4,3.5,2.3c1.1,0.9,2,1.9,2.8,3c0.8,1.2,1.5,2.4,2,3.6c0.5,1.3,0.8,2.7,0.9,4.1
			c0.1,1.4,0.2,2.8-0.1,4.1c-0.2,1.4-0.7,2.7-1.2,4c-0.6,1.3-1.3,2.5-2.2,3.5c-0.9,1.1-1.8,2.1-3,2.9c-1.2,0.8-2.4,1.5-3.7,2
			c-1.3,0.5-2.7,0.7-4.1,0.8c-1.4,0.1-2.8,0.2-4.2-0.1c-1.4-0.2-2.7-0.6-4-1.2c-1.3-0.6-2.5-1.2-3.6-2.1c-1.1-0.9-2-1.9-2.8-3.1
			c-0.8-1.2-1.5-2.4-2-3.6c-0.5-1.3-0.7-2.7-0.9-4.1c-0.1-1.4,0-2.8,0.2-4.1c0.2-1.4,0.5-2.8,1.1-4c0.6-1.3,1.4-2.4,2.3-3.5
			C1021.3,440.7,1022.2,439.7,1023.4,438.8z"/>
		<path id="XMLID_29_" class="st5" d="M1024.1,440c1.3-0.9,2.7-1.5,4.1-1.9c1.5-0.5,3-0.6,4.5-0.6c1.5,0,3.1,0,4.5,0.5
			c1.4,0.5,2.9,1,4.2,2c1.2,0.9,2.1,2.2,3.1,3.5c0.9,1.3,1.6,2.7,2.1,4.1c0.5,1.5,0.5,3,0.4,4.5c0,1.5,0.2,3.1-0.3,4.6
			c-0.5,1.4-1.2,2.9-2.1,4.1c-0.9,1.2-2.2,2.2-3.4,3.1c-1.3,0.9-2.7,1.4-4.1,1.9c-1.5,0.5-2.9,0.8-4.5,0.8c-1.5,0-3.1-0.1-4.5-0.6
			c-1.4-0.5-2.9-1-4.2-1.9c-1.2-0.9-2.4-2-3.3-3.3c-0.9-1.3-1.2-2.9-1.7-4.3c-0.5-1.5-0.8-3-0.8-4.5c0-1.5,0.1-3.1,0.6-4.5
			c0.5-1.4,1.4-2.7,2.3-3.9C1021.9,442.1,1022.9,440.9,1024.1,440z"/>
		<path id="XMLID_28_" class="st6" d="M1022.1,458.5c1.1-0.2,8.9-5.4,8.8-6.4c0,0-9.5-1.7-10.6-1.5
			C1019.3,450.9,1021,458.7,1022.1,458.5z"/>
		<path id="XMLID_27_" class="st6" d="M1031.6,451.5c-0.9-1.7-5-9.4-6-9.7c-1.1-0.3-6,6.4-5.1,7.1
			C1021.3,449.6,1032.1,452.4,1031.6,451.5z"/>
		<path id="XMLID_26_" class="st6" d="M1039,462.2c-0.1-1.8-5-8.9-6.2-8.7c-1.2,0.2-1.7,9.3-1,10.8
			C1032.4,465.4,1039,464.1,1039,462.2z"/>
		<path id="XMLID_25_" class="st6" d="M1029.7,463.5c0.8-0.7,2.5-9.5,1.9-9.9c-0.6-0.4-8.2,5.3-8.6,6.3
			C1022.6,461.1,1028.2,464.7,1029.7,463.5z"/>
		<path id="XMLID_24_" class="st6" d="M1043.7,446.5c-3.8,1.6-9.7,4.5-9.6,5.2c0.1,0.4,8.8,1.6,10.5,2.2
			C1046.6,454.5,1045.2,445.9,1043.7,446.5z"/>
		<path id="XMLID_23_" class="st6" d="M1034,452.6c-0.5,0.9,4.8,6.3,6.8,8.6c0.7,0.8,5.2-3.9,4.2-5.4
			C1043.8,454.1,1034.5,451.7,1034,452.6z"/>
		<path id="XMLID_22_" class="st6" d="M1027,440.8c1.3,2.8,4.3,10.1,5.5,10.4c1.2,0.2,2.6-10.1,1.6-11.5
			C1033,438.3,1026.2,439.1,1027,440.8z"/>
		<path id="XMLID_21_" class="st6" d="M1034.1,449.9c-0.2,0.7-0.5,1.1,0.4,0.6c0.8-0.5,5.7-3.1,6.7-3.6c1.1-0.5,3.1-1.8,1.2-4
			c-2-2.2-4.1-2.9-5.5-3.1c-1.4-0.2-1.4,1.4-1.5,2.5C1035.3,443.4,1034.4,448.5,1034.1,449.9z"/>
	</g>
	<g id="XMLID_9_">
		<path id="XMLID_19_" class="st4" d="M1071.6,418.7c0.5,1.2,0.8,2.4,1,3.6c0.2,1.3,0.1,2.5,0,3.8c-0.2,1.2-0.5,2.5-1,3.6
			c-0.5,1.2-1.1,2.3-1.9,3.3c-0.8,1-1.7,1.8-2.7,2.6c-1,0.7-2.1,1.4-3.3,1.8c-1.2,0.5-2.4,0.8-3.6,1c-1.3,0.2-2.5,0.1-3.7-0.1
			c-1.3-0.2-2.5-0.5-3.6-0.9c-1.2-0.5-2.2-1.2-3.2-1.9c-1-0.8-1.9-1.6-2.7-2.6c-0.7-1-1.4-2-1.9-3.2c-0.5-1.2-0.8-2.4-1-3.6
			c-0.2-1.3,0-2.5,0.1-3.8c0.2-1.3,0.4-2.5,0.9-3.6c0.5-1.2,1.1-2.2,1.9-3.2c0.8-1,1.6-1.9,2.6-2.7c1-0.7,2.1-1.4,3.3-1.8
			c1.2-0.5,2.4-0.9,3.6-1c1.3-0.2,2.5-0.1,3.8,0.1c1.3,0.2,2.4,0.5,3.6,1c1.2,0.5,2.3,1,3.3,1.8c1,0.8,1.8,1.7,2.6,2.7
			C1070.4,416.4,1071.1,417.5,1071.6,418.7z"/>
		<path id="XMLID_18_" class="st5" d="M1070.4,419.1c0.5,1.3,0.7,2.7,0.8,4c0.1,1.4-0.1,2.7-0.4,4.1c-0.3,1.3-0.6,2.7-1.4,3.9
			c-0.7,1.2-1.5,2.4-2.6,3.3c-1,0.9-2.4,1.4-3.7,2c-1.3,0.5-2.7,0.8-4,0.9c-1.4,0.1-2.7-0.2-4.1-0.6c-1.3-0.3-2.8-0.5-4-1.2
			c-1.2-0.7-2.3-1.6-3.2-2.7c-0.9-1-1.4-2.4-2-3.7c-0.5-1.3-0.7-2.7-0.8-4c-0.1-1.4-0.1-2.8,0.2-4.1c0.3-1.3,0.8-2.7,1.5-3.9
			c0.7-1.2,1.5-2.4,2.6-3.3c1-0.9,2.3-1.7,3.6-2.2c1.3-0.5,2.8-0.5,4.1-0.6c1.4-0.1,2.8-0.1,4.1,0.2c1.3,0.3,2.7,0.8,3.9,1.5
			c1.2,0.7,2.1,1.8,3,2.9C1069,416.7,1069.9,417.8,1070.4,419.1z"/>
		<path id="XMLID_17_" class="st6" d="M1054.5,413.4c-0.1,1,2.9,8.9,3.7,9.1c0,0,3.5-8,3.5-9
			C1061.9,412.6,1054.6,412.4,1054.5,413.4z"/>
		<path id="XMLID_16_" class="st6" d="M1058.7,423.2c1.7-0.4,9.3-2.4,9.8-3.2c0.5-0.9-4.3-6.6-5.2-6
			C1062.6,414.5,1057.8,423.4,1058.7,423.2z"/>
		<path id="XMLID_15_" class="st6" d="M1047.7,427.4c1.6,0.3,8.9-2.5,9-3.6c0.1-1.1-7.8-3.5-9.3-3.1
			C1046.4,420.9,1046.1,427,1047.7,427.4z"/>
		<path id="XMLID_14_" class="st6" d="M1048.6,419c0.4,0.9,7.8,4.2,8.3,3.8c0.4-0.4-2.9-8.3-3.7-8.9
			C1052.2,413.2,1047.8,417.4,1048.6,419z"/>
		<path id="XMLID_13_" class="st6" d="M1060.5,434.9c-0.6-3.6-1.9-9.5-2.5-9.5c-0.4,0-3.3,7.4-4.1,8.7
			C1052.9,435.7,1060.8,436.3,1060.5,434.9z"/>
		<path id="XMLID_12_" class="st6" d="M1057.2,425c-0.7-0.7-6.5,2.9-9,4.1c-0.9,0.5,2.4,5.4,3.9,4.8
			C1053.8,433.4,1057.9,425.7,1057.2,425z"/>
		<path id="XMLID_11_" class="st6" d="M1069.1,421.4c-2.7,0.5-9.8,1.6-10.3,2.6c-0.5,1,8.3,4.5,9.7,3.8
			C1070,427.2,1070.7,421.1,1069.1,421.4z"/>
		<path id="XMLID_10_" class="st6" d="M1059.6,425.7c-0.6-0.3-0.9-0.6-0.6,0.2c0.3,0.8,1.5,5.6,1.7,6.7c0.2,1.1,0.9,3.1,3.3,1.9
			c2.4-1.2,3.4-3,3.9-4.2c0.4-1.2-0.9-1.6-1.9-1.9C1065.1,428.1,1060.7,426.3,1059.6,425.7z"/>
	</g>
	<g id="XMLID_6_">
		<path id="XMLID_8_" class="st7" d="M1027.3,412.6c-1.8,1.3-2.8,3.6-3.1,5.8c-0.5,3.1,0.7,7.1,2.6,9.7c0.8,1.1,1,1.4,2.3,1.4
			c1.6,0,3.1-0.4,4.7-0.7c0.7-0.1,2.7-0.2,3.2-0.7c0.5-0.5,0.5-2.6,0.7-3.5c0.4-1.7,0.9-3,2.1-4.4c1.2-1.4,2.5-2,1.3-3.9
			c-1.3-2.1-3.2-4.5-5.2-5.9c-1.5-1-3.1-0.8-4.6-0.2C1029.6,411,1028.7,411.5,1027.3,412.6z"/>
		<path id="XMLID_7_" class="st8" d="M1029.4,426.7c0.1-3.2,0.5-6.8,1.9-9.7c0.8-1.6,1.8-3.1,2.9-4.6c0.4-0.6,1-1.3,1.3-2.1
			c-1.4-0.8-2.9-0.6-4.3,0c-1.6,0.7-2.5,1.3-3.9,2.4c-1.8,1.3-2.8,3.6-3.1,5.8c-0.5,3.1,0.7,7.1,2.6,9.7c0.8,1.1,1,1.4,2.3,1.4
			c0.1,0,0.2,0,0.3,0C1029.4,428.6,1029.4,427.6,1029.4,426.7z"/>
	</g>
	<g id="XMLID_3_">
		<path id="XMLID_5_" class="st7" d="M1060.5,458c1.8,0.5,3.8-0.1,5.2-1.1c2.1-1.4,3.7-4.6,4-7.3c0.1-1.1,0.2-1.5-0.6-2.4
			c-1-1.1-2.1-2-3.2-2.9c-0.5-0.4-1.7-1.8-2.3-1.9c-0.6-0.1-1.8,1.1-2.4,1.5c-1.3,0.7-2.3,1.1-3.8,1c-1.5,0-2.6-0.6-3,1.3
			c-0.5,2.1-0.6,4.8-0.2,7.1c0.3,1.6,1.4,2.7,2.6,3.4C1058.1,457.3,1059,457.6,1060.5,458z"/>
		<path id="XMLID_4_" class="st8" d="M1067.3,448.4c-1.9,1.7-4.2,3.5-6.7,4.1c-1.4,0.3-2.9,0.5-4.4,0.6c-0.6,0-1.3,0.1-2,0.3
			c0.4,1.5,1.4,2.4,2.6,3.1c1.4,0.7,2.2,1,3.7,1.4c1.8,0.5,3.8-0.1,5.2-1.1c2.1-1.4,3.7-4.6,4-7.3c0.1-1.1,0.2-1.5-0.6-2.4
			c-0.1-0.1-0.1-0.1-0.2-0.2C1068.4,447.4,1067.8,448,1067.3,448.4z"/>
	</g>
</g>
</svg>
